<?xml version="1.0" standalone="no"?>
<!DOCTYPE svg PUBLIC "-//W3C//DTD SVG 20010904//EN"
 "http://www.w3.org/TR/2001/REC-SVG-20010904/DTD/svg10.dtd">
<svg version="1.0" xmlns="http://www.w3.org/2000/svg"
 width="1000.000000pt" height="1000.000000pt" viewBox="0 0 1000.000000 1000.000000"
 preserveAspectRatio="xMidYMid meet">
<metadata>
Created by potrace 1.14, written by Peter Selinger 2001-2017
</metadata>
<g transform="translate(0.000000,1000.000000) scale(0.100000,-0.100000)"
fill="#000000" stroke="none">
<path d="M233 8735 c-16 -12 -22 -83 -9 -104 6 -9 5 -12 0 -8 -8 5 -11 -66 -4
-83 1 -3 1 -9 0 -15 -6 -25 -5 -62 2 -83 4 -13 4 -21 0 -18 -9 5 -9 -105 0
-120 4 -5 3 -16 -2 -24 -4 -7 -4 -24 1 -37 5 -13 5 -22 1 -19 -11 6 -8 -57 3
-74 5 -8 4 -11 -2 -7 -11 7 -9 -95 3 -114 4 -7 3 -10 -2 -6 -12 7 -10 -135 2
-154 4 -7 3 -10 -3 -6 -11 7 -9 -95 3 -114 4 -7 3 -10 -3 -6 -12 7 -10 -54 2
-73 5 -8 4 -11 -1 -7 -8 5 -11 -66 -4 -83 1 -3 1 -9 0 -15 -6 -25 -5 -62 2
-83 4 -13 5 -21 0 -18 -11 7 -9 -128 3 -136 6 -5 5 -8 -3 -8 -8 0 -10 -5 -6
-12 10 -16 13 -48 4 -43 -9 6 -5 -59 5 -75 5 -8 4 -11 -2 -7 -11 7 -9 -95 3
-114 4 -7 3 -10 -2 -6 -12 7 -10 -135 2 -154 4 -7 3 -10 -3 -6 -11 7 -9 -95 3
-114 4 -7 3 -10 -3 -6 -12 7 -10 -54 2 -73 5 -8 4 -11 -1 -7 -8 5 -11 -66 -4
-83 1 -3 1 -9 0 -15 -6 -25 -5 -62 2 -83 4 -13 4 -21 0 -18 -9 5 -9 -105 0
-120 4 -5 3 -16 -2 -24 -4 -7 -4 -24 1 -37 5 -13 5 -22 1 -19 -11 6 -8 -57 3
-74 5 -8 4 -11 -1 -7 -8 5 -11 -105 -4 -138 1 -5 1 -12 0 -15 -6 -15 -4 -160
3 -160 5 0 5 -6 0 -12 -10 -17 -11 -29 -1 -56 5 -15 4 -21 -2 -17 -13 8 -2
-45 12 -60 5 -6 114 -10 270 -10 252 0 261 0 274 20 11 17 14 164 13 815 0
437 0 810 0 829 1 28 3 32 16 21 8 -7 12 -16 9 -21 -3 -5 0 -9 5 -9 6 0 11 -7
11 -15 0 -8 4 -15 10 -15 5 0 7 -7 4 -15 -4 -8 -2 -15 3 -15 6 0 18 -20 28
-44 10 -25 21 -43 25 -41 3 2 7 -6 7 -17 1 -12 8 -25 15 -29 7 -5 10 -9 5 -9
-4 0 4 -18 18 -40 14 -22 23 -40 20 -40 -3 0 5 -17 18 -37 29 -48 51 -96 49
-105 -1 -5 2 -8 6 -8 5 0 14 -16 22 -35 8 -19 18 -35 22 -35 5 0 7 -4 3 -9 -3
-5 1 -16 9 -24 8 -8 12 -17 9 -21 -4 -3 -1 -6 5 -6 7 0 11 -3 10 -7 -3 -13 33
-83 43 -83 5 0 8 -3 7 -7 -3 -16 15 -63 24 -63 5 0 6 -4 3 -10 -3 -5 -2 -10 4
-10 5 0 15 -16 21 -35 6 -19 16 -35 21 -35 5 0 9 -3 8 -7 -2 -16 14 -53 23
-53 5 0 6 -5 3 -10 -3 -6 1 -13 9 -16 9 -3 13 -10 10 -15 -3 -6 -1 -15 4 -22
5 -7 47 -84 92 -172 45 -88 86 -165 91 -171 5 -6 6 -14 2 -17 -3 -4 2 -9 11
-13 9 -3 13 -10 10 -16 -3 -5 0 -17 8 -26 7 -9 25 -41 38 -69 14 -29 29 -53
33 -53 5 0 6 -4 3 -9 -3 -4 3 -19 14 -31 11 -13 20 -20 20 -15 0 4 6 3 13 -2
6 -5 115 -9 243 -8 200 1 234 3 248 17 9 9 16 19 16 22 0 7 77 166 100 206 8
14 15 27 15 30 2 15 171 346 177 348 5 2 6 8 2 13 -3 5 0 9 6 9 6 0 8 5 5 10
-3 6 -1 10 4 10 6 0 10 3 9 8 -3 9 54 125 65 133 5 3 9 9 9 12 0 19 12 47 20
47 5 0 7 4 3 9 -3 5 2 17 11 25 8 9 13 16 10 16 -7 0 46 103 57 111 5 3 8 10
8 15 -1 9 179 374 189 384 3 3 6 10 7 15 1 6 13 33 27 60 l26 50 1 -50 c1 -27
1 -237 2 -465 0 -286 4 -418 11 -425 13 -12 26 -13 44 -2 6 5 12 4 12 -1 0
-10 30 -9 48 2 6 4 12 3 12 -2 0 -10 30 -9 48 2 6 4 12 3 12 -2 0 -10 61 -9
78 2 7 4 12 3 12 -3 0 -5 10 -7 23 -5 12 3 27 6 32 6 6 0 20 -3 33 -6 13 -3
22 0 22 7 0 8 3 8 8 2 9 -13 52 -15 52 -3 0 5 10 3 23 -3 12 -7 22 -12 22 -12
0 0 11 5 24 12 13 7 21 8 17 3 -3 -6 2 -8 13 -5 19 5 20 26 20 1122 0 616 -4
1123 -9 1131 -7 11 -56 14 -265 14 -141 1 -265 -2 -275 -6 -21 -8 -83 -121
-73 -132 4 -3 2 -6 -3 -6 -9 0 -37 -62 -34 -76 1 -4 -3 -10 -8 -13 -12 -8 -52
-91 -52 -108 0 -7 -4 -13 -10 -13 -5 0 -10 -9 -10 -19 0 -11 -7 -26 -15 -35
-9 -8 -16 -19 -15 -23 0 -17 -13 -48 -26 -61 -8 -7 -12 -17 -9 -22 3 -5 1 -11
-5 -15 -6 -4 -8 -11 -5 -16 4 -5 2 -9 -3 -9 -6 0 -13 -12 -17 -27 -3 -15 -11
-30 -16 -34 -6 -3 -11 -15 -12 -27 0 -12 -7 -24 -15 -27 -8 -3 -11 -12 -8 -20
3 -8 1 -15 -5 -15 -6 0 -7 -4 -4 -10 3 -5 1 -10 -5 -10 -6 0 -8 -4 -5 -10 3
-5 1 -10 -5 -10 -7 0 -10 -7 -6 -15 3 -8 2 -15 -3 -15 -5 0 -14 -15 -22 -32
-7 -18 -22 -46 -33 -62 -11 -16 -16 -27 -10 -24 5 4 -7 -28 -27 -70 -45 -93
-127 -268 -159 -339 -13 -29 -27 -53 -31 -53 -5 0 -6 -7 -3 -15 4 -8 1 -15 -6
-15 -6 0 -9 -4 -5 -9 3 -5 1 -12 -5 -16 -6 -4 -8 -11 -5 -16 4 -5 2 -9 -3 -9
-8 0 -52 -92 -52 -110 0 -6 -5 -10 -11 -10 -5 0 -8 -4 -4 -9 3 -5 1 -12 -5
-16 -6 -4 -8 -11 -5 -16 4 -5 1 -9 -5 -9 -6 0 -8 -4 -5 -10 3 -5 1 -10 -4 -10
-6 0 -10 -3 -9 -7 2 -11 -35 -86 -47 -95 -5 -4 -6 -8 -1 -8 5 0 3 -6 -3 -13
-6 -8 -8 -17 -4 -20 3 -4 1 -7 -5 -7 -7 0 -11 -3 -10 -7 1 -5 -13 -39 -32 -78
-19 -38 -35 -76 -36 -84 -2 -8 -8 -17 -15 -22 -7 -4 -13 -20 -15 -35 -2 -16
-8 -30 -14 -32 -5 -2 -10 -9 -10 -15 0 -7 -14 -39 -30 -72 -16 -33 -30 -65
-30 -72 0 -7 -7 -10 -15 -7 -8 4 -15 12 -15 20 0 8 -4 14 -10 14 -5 0 -10 9
-10 20 0 11 -4 20 -10 20 -5 0 -10 5 -10 11 0 6 -11 33 -25 60 -13 27 -21 49
-17 49 4 0 2 4 -5 8 -17 11 -83 158 -75 168 4 4 2 5 -4 1 -6 -3 -22 22 -38 59
-16 37 -32 61 -39 57 -6 -3 -7 -1 -3 6 4 6 2 19 -6 28 -7 9 -12 17 -10 17 6 2
-23 66 -30 66 -4 0 -8 6 -8 14 0 13 -14 44 -35 76 -5 8 -10 20 -11 25 -5 27
-25 65 -34 65 -5 0 -10 6 -10 13 0 14 -128 278 -139 287 -3 3 -7 13 -9 23 -2
10 -16 42 -32 71 -16 29 -27 56 -23 60 3 3 1 6 -5 6 -10 0 -22 24 -22 43 1 4
-6 15 -15 23 -8 9 -13 20 -10 25 4 5 2 9 -3 9 -8 0 -20 28 -20 47 0 3 -4 9 -9
12 -12 9 -34 51 -38 74 -3 11 -11 27 -20 37 -8 9 -12 20 -8 23 3 4 1 7 -5 7
-7 0 -12 9 -12 20 0 11 -4 20 -10 20 -5 0 -10 4 -10 9 0 5 -5 22 -11 38 -6 15
-10 30 -9 32 1 2 -5 8 -14 13 -9 5 -14 13 -11 18 3 5 1 11 -5 15 -5 3 -10 15
-10 26 0 11 -7 22 -15 25 -8 4 -12 11 -9 16 4 6 2 13 -3 17 -5 3 -22 34 -38
69 -16 34 -32 62 -36 62 -4 0 -6 9 -4 20 2 11 0 18 -6 15 -5 -4 -9 0 -9 7 0 8
-15 43 -34 78 -19 35 -32 68 -30 72 3 4 0 8 -5 8 -6 0 -11 6 -11 13 0 6 -9 23
-19 37 l-19 24 -263 1 c-161 0 -267 -4 -276 -10z"/>
<path d="M4469 8739 c-24 -4 -64 -9 -89 -13 -46 -6 -83 -13 -87 -16 -2 -2 -7
-4 -13 -5 -5 -1 -11 -3 -12 -4 -2 -2 -13 -4 -26 -7 -13 -2 -50 -17 -82 -33
-32 -16 -61 -27 -64 -23 -3 3 -6 1 -6 -5 0 -5 -18 -18 -40 -28 -22 -10 -40
-22 -40 -27 0 -4 -7 -8 -15 -8 -8 0 -15 -4 -15 -8 0 -4 -18 -19 -40 -32 -22
-14 -40 -28 -40 -33 0 -4 -21 -28 -47 -53 -27 -25 -48 -49 -48 -53 0 -4 -8
-15 -17 -24 -9 -10 -20 -26 -23 -37 -3 -11 -10 -20 -15 -20 -8 0 -23 -38 -21
-52 1 -5 -4 -8 -10 -8 -5 0 -7 -4 -4 -10 3 -5 2 -10 -4 -10 -10 0 -36 -74 -34
-97 0 -7 -3 -13 -7 -13 -7 0 -24 -66 -36 -145 -8 -47 -12 -196 -6 -208 2 -5 6
-27 7 -50 5 -53 10 -78 32 -141 9 -28 17 -53 18 -57 1 -15 69 -138 93 -168 81
-103 246 -230 330 -256 12 -3 22 -11 22 -17 0 -5 7 -8 15 -4 8 3 20 0 27 -7 7
-7 20 -13 28 -14 8 -1 47 -11 85 -22 39 -11 84 -22 100 -25 17 -2 40 -7 52
-10 12 -2 55 -6 95 -7 40 -1 78 -5 83 -9 6 -3 17 -6 25 -5 8 1 31 -7 50 -17
19 -10 40 -18 47 -18 7 0 13 -5 13 -10 0 -6 8 -14 18 -17 33 -13 99 -90 129
-151 26 -55 29 -71 27 -140 -4 -94 -5 -102 -16 -102 -4 0 -8 -8 -8 -19 0 -10
-7 -24 -15 -31 -8 -7 -15 -17 -15 -22 0 -13 -67 -78 -80 -78 -6 0 -10 -4 -10
-10 0 -5 -11 -12 -25 -16 -14 -3 -25 -10 -25 -14 0 -7 -61 -23 -76 -20 -4 1
-11 -4 -15 -12 -7 -10 -9 -10 -9 1 0 11 -3 12 -12 3 -7 -7 -17 -8 -29 -1 -14
7 -20 5 -28 -9 -12 -23 -12 -513 0 -528 5 -6 24 -10 42 -8 17 2 50 6 72 9 64
7 165 28 165 34 0 3 14 7 32 8 17 1 34 6 37 10 3 5 13 9 21 11 8 2 35 13 60
24 25 12 48 20 53 20 4 -1 7 1 7 6 0 4 17 16 37 27 37 20 69 43 105 78 10 9
23 17 29 17 5 0 7 5 4 10 -3 6 0 10 9 10 8 0 16 4 18 9 2 4 21 29 42 55 39 45
53 67 78 116 7 14 17 28 23 32 5 4 7 8 2 8 -4 0 0 11 9 25 9 14 12 25 8 25 -5
0 -3 4 5 9 8 5 16 18 17 28 4 29 15 76 20 84 18 29 26 355 9 395 -4 10 -9 28
-11 39 -8 46 -10 55 -17 61 -4 4 -7 16 -7 26 0 10 -4 26 -9 36 -5 9 -17 33
-26 52 -28 60 -67 124 -88 143 -11 9 -17 17 -14 17 4 0 -7 14 -25 30 -17 17
-27 30 -22 30 5 0 -3 8 -16 17 -25 17 -36 27 -88 70 -15 13 -33 23 -39 23 -7
0 -13 5 -13 10 0 6 -7 10 -15 10 -8 0 -15 5 -15 10 0 6 -9 10 -20 10 -11 0
-20 4 -20 9 0 5 -17 15 -37 22 -21 6 -43 15 -49 20 -6 5 -19 10 -30 12 -10 2
-26 7 -34 10 -52 20 -191 46 -277 51 -34 3 -67 7 -73 11 -5 3 -10 2 -10 -3 0
-5 -29 -1 -65 9 -36 10 -65 15 -65 11 0 -4 -5 1 -11 11 -6 9 -14 15 -19 12 -5
-3 -24 10 -44 28 -20 19 -38 32 -41 29 -2 -3 -8 4 -12 14 -4 10 -15 28 -25 38
-10 11 -18 25 -18 32 0 6 -6 24 -14 39 -8 15 -12 34 -9 42 3 8 0 19 -8 24 -10
6 -10 9 -2 9 9 0 10 7 3 25 -6 16 -6 25 0 25 6 0 8 11 6 25 -3 14 -2 25 2 25
4 0 8 15 9 33 7 100 134 219 258 242 51 10 175 14 175 6 0 -3 16 -7 35 -8 41
-2 139 -53 174 -91 32 -35 70 -113 75 -154 10 -79 10 -80 107 -83 25 -1 51 -5
57 -9 7 -4 12 -3 12 1 0 12 134 10 142 -2 5 -6 8 -6 8 1 0 6 7 11 15 11 8 0
15 -3 15 -7 0 -4 7 -7 15 -7 8 0 12 4 10 8 -7 11 59 5 67 -6 5 -6 8 -6 8 1 0
7 13 11 33 9 55 -5 64 7 62 72 -1 32 -3 58 -4 58 -2 0 -4 22 -6 49 -3 27 -8
52 -12 55 -5 3 -8 13 -8 21 1 8 -3 20 -8 27 -5 7 -6 17 -2 23 3 5 1 10 -5 10
-7 0 -10 7 -6 15 3 8 0 15 -6 15 -6 0 -9 3 -5 6 3 4 -1 13 -9 21 -8 8 -12 19
-9 24 4 5 1 9 -6 9 -7 0 -9 3 -6 6 3 4 -2 18 -13 32 -11 13 -17 29 -13 35 3 6
1 7 -5 3 -7 -4 -12 -1 -12 6 0 8 -13 28 -30 46 -16 18 -30 35 -30 38 0 9 -67
71 -130 120 -69 53 -228 135 -267 138 -13 0 -23 4 -23 9 0 4 -3 6 -7 6 -5 -1
-10 0 -13 1 -3 1 -14 3 -25 5 -11 3 -33 7 -50 10 -16 4 -50 8 -75 10 -25 2
-45 4 -45 5 0 5 -129 4 -166 -1z"/>
<path d="M5599 8738 c-10 -4 -20 -13 -20 -20 -1 -7 -2 -514 -3 -1126 -1 -981
1 -1113 14 -1116 8 -2 137 -3 285 -3 l270 2 1 615 c1 338 2 621 3 628 1 10 4
10 15 0 8 -7 12 -16 10 -19 -1 -3 6 -12 17 -19 10 -8 19 -20 19 -26 0 -10 33
-57 70 -101 6 -7 8 -13 5 -13 -3 0 6 -12 20 -27 14 -15 25 -33 25 -40 0 -7 5
-13 10 -13 6 0 10 -7 10 -15 0 -8 3 -15 8 -15 4 0 18 -18 32 -40 14 -22 29
-40 34 -40 5 0 7 -3 3 -6 -3 -4 -1 -12 6 -20 29 -33 37 -44 37 -54 0 -5 5 -10
10 -10 6 0 10 -7 10 -15 0 -8 3 -15 8 -15 4 -1 23 -25 42 -55 19 -29 38 -51
42 -48 5 2 8 1 7 -4 -4 -12 23 -63 33 -63 4 0 8 -6 8 -14 0 -8 10 -22 22 -30
12 -9 18 -16 13 -16 -4 0 0 -10 11 -22 11 -13 33 -43 50 -68 16 -25 32 -46 37
-48 4 -2 7 -10 7 -18 0 -8 3 -14 8 -14 4 0 12 -9 17 -19 6 -11 37 -57 70 -103
62 -86 67 -93 100 -146 11 -17 23 -32 27 -32 4 0 15 -16 24 -35 9 -19 20 -35
25 -35 5 0 9 -7 9 -15 0 -8 5 -15 10 -15 6 0 10 -7 10 -15 0 -9 7 -18 15 -21
8 -4 15 -10 15 -16 0 -5 11 -24 25 -42 14 -18 25 -36 25 -39 0 -4 7 -15 16
-24 26 -30 103 -138 104 -145 0 -5 8 -17 18 -27 32 -37 42 -50 42 -61 0 -5 5
-10 10 -10 6 0 10 -7 10 -15 0 -8 5 -15 10 -15 6 0 10 -4 10 -10 0 -9 11 -25
45 -64 6 -6 11 -18 13 -26 2 -7 9 -18 16 -24 6 -6 25 -30 41 -54 16 -24 38
-48 49 -55 14 -7 104 -11 275 -12 241 0 254 1 267 20 12 16 14 251 14 1481 0
1379 -1 1462 -17 1476 -15 12 -62 14 -275 13 -142 0 -260 -4 -263 -7 -4 -3 -7
-12 -9 -20 -1 -7 -5 -19 -9 -25 -5 -7 -5 -13 0 -13 4 0 8 -54 8 -120 0 -66 -4
-120 -9 -120 -5 0 -5 -5 0 -12 5 -7 8 -38 7 -68 -3 -71 -3 -59 0 -243 1 -88
-1 -164 -5 -170 -3 -6 -2 -20 2 -32 5 -14 4 -27 -3 -34 -6 -6 -7 -11 -1 -11
10 0 12 -156 1 -166 -3 -4 -3 -14 1 -23 4 -9 7 -59 5 -111 -3 -127 -3 -117 0
-188 1 -34 0 -68 -4 -74 -4 -6 -3 -21 1 -33 5 -14 4 -27 -3 -34 -6 -6 -7 -11
-1 -11 7 0 11 -152 4 -170 -1 -3 -1 -9 0 -15 7 -27 5 -122 -2 -137 -4 -9 -4
-19 1 -22 12 -8 5 -96 -10 -110 -9 -8 -10 -8 -5 2 4 7 2 12 -5 12 -7 0 -10 3
-6 6 3 3 -5 16 -17 28 -13 11 -21 27 -19 34 3 6 1 12 -5 12 -5 0 -26 26 -48
58 -21 31 -42 59 -46 60 -5 2 -8 10 -8 18 0 8 -4 14 -10 14 -5 0 -10 5 -10 10
0 6 -8 20 -18 31 -11 10 -25 32 -33 47 -8 15 -21 32 -29 39 -8 7 -11 13 -5 13
5 0 -1 7 -13 16 -12 8 -22 22 -22 30 0 8 -4 14 -10 14 -5 0 -10 6 -10 14 0 8
-3 16 -7 18 -5 2 -28 32 -53 68 -24 36 -48 67 -52 68 -4 2 -8 9 -8 16 0 6 -13
26 -30 44 -16 18 -29 35 -30 37 0 5 -28 52 -43 70 -4 6 -19 24 -32 40 -14 17
-25 36 -25 43 0 6 -4 12 -10 12 -5 0 -10 5 -10 10 0 6 -11 23 -24 37 -14 15
-23 30 -20 35 3 4 1 8 -5 8 -5 0 -20 17 -32 38 -13 20 -27 39 -31 40 -4 2 -8
8 -8 13 0 6 -5 15 -10 22 -11 13 -63 85 -120 168 -19 28 -56 79 -82 115 -26
35 -45 64 -42 64 3 0 -1 7 -8 15 -20 22 -29 35 -78 105 -24 36 -48 67 -52 68
-4 2 -8 10 -8 18 0 8 -4 14 -10 14 -5 0 -10 6 -10 14 0 8 -3 16 -7 18 -9 3
-15 12 -88 120 -27 40 -52 75 -55 78 -3 3 -18 24 -34 48 -16 23 -34 42 -40 43
-53 5 -512 2 -527 -3z"/>
<path d="M6243 6102 c-6 -4 -48 -7 -92 -7 -45 0 -81 -2 -81 -5 0 -3 -15 -6
-32 -7 -31 -1 -109 -14 -168 -28 -14 -3 -36 -8 -49 -11 -13 -3 -48 -13 -78
-24 -29 -10 -53 -17 -53 -15 0 2 -27 -10 -60 -26 -33 -16 -65 -29 -70 -29 -6
0 -10 -4 -10 -8 0 -6 -59 -34 -68 -31 -2 0 -10 -8 -18 -18 -7 -10 -14 -13 -14
-8 0 6 -3 6 -8 -1 -4 -5 -25 -23 -47 -40 -22 -16 -45 -36 -52 -44 -7 -8 -13
-12 -13 -8 0 16 -150 -145 -150 -163 0 -5 -4 -7 -10 -4 -5 3 -10 -1 -10 -9 0
-9 -4 -16 -10 -16 -5 0 -10 -5 -10 -10 0 -11 -39 -70 -52 -80 -3 -3 -10 -18
-13 -33 -4 -15 -11 -27 -15 -27 -5 0 -11 -13 -15 -30 -4 -16 -11 -30 -16 -30
-5 0 -8 -3 -7 -7 3 -13 -25 -83 -34 -83 -4 0 -5 -6 -2 -14 3 -8 0 -17 -5 -21
-6 -3 -9 -11 -6 -16 4 -5 2 -9 -4 -9 -6 0 -8 -6 -5 -14 3 -8 1 -17 -5 -20 -6
-4 -8 -13 -4 -21 3 -8 1 -15 -3 -15 -5 0 -9 -10 -10 -22 0 -13 -4 -36 -7 -53
-23 -104 -25 -118 -32 -205 -14 -160 -14 -181 6 -201 11 -11 27 -19 37 -20
111 -5 739 -2 761 4 32 8 40 24 45 84 4 49 17 115 25 128 3 6 7 19 9 30 4 31
64 124 99 155 17 15 29 31 26 34 -4 3 1 6 10 6 10 0 17 3 17 8 0 6 58 38 115
63 36 16 139 35 177 34 22 -1 35 2 31 8 -3 6 -1 7 5 3 6 -4 25 -9 42 -11 77
-10 173 -46 205 -79 6 -6 26 -22 43 -36 18 -14 32 -30 32 -37 0 -6 4 -13 8
-15 13 -5 63 -97 60 -111 -1 -6 3 -21 8 -32 6 -11 10 -35 9 -52 0 -18 3 -33 7
-33 5 0 4 -9 -2 -19 -7 -14 -7 -22 0 -26 6 -4 8 -11 4 -16 -5 -9 -8 -22 -17
-84 -1 -11 -5 -24 -8 -30 -4 -5 -10 -23 -14 -40 -11 -41 -10 -37 -25 -67 -7
-16 -17 -28 -22 -28 -5 0 -6 -5 -2 -11 3 -6 2 -14 -4 -18 -6 -3 -12 -13 -14
-21 -2 -8 -12 -23 -22 -32 -10 -10 -16 -18 -12 -18 4 0 1 -6 -6 -14 -7 -7 -20
-24 -28 -36 -8 -13 -23 -32 -32 -42 -10 -10 -15 -18 -12 -18 3 0 -13 -22 -36
-50 -23 -27 -39 -50 -35 -50 3 0 -1 -7 -9 -16 -9 -8 -30 -37 -48 -62 -18 -26
-40 -56 -50 -66 -10 -11 -20 -27 -23 -37 -3 -9 -12 -20 -20 -23 -8 -3 -15 -12
-15 -21 0 -8 -5 -15 -12 -15 -6 0 -8 -3 -5 -7 4 -3 -2 -13 -13 -20 -11 -8 -18
-19 -15 -24 4 -5 2 -9 -3 -9 -4 0 -33 -35 -62 -77 -30 -43 -62 -87 -72 -97
-10 -11 -18 -23 -18 -26 0 -4 -8 -16 -17 -28 -10 -11 -25 -30 -33 -43 -8 -12
-22 -30 -32 -40 -9 -9 -19 -26 -23 -38 -3 -12 -10 -21 -14 -21 -4 0 -22 -22
-40 -50 -18 -27 -37 -50 -43 -50 -6 0 -8 -3 -5 -6 4 -4 -4 -19 -16 -34 -46
-58 -65 -85 -65 -94 0 -5 -5 -12 -11 -15 -5 -4 -37 -45 -70 -91 -33 -47 -65
-90 -70 -96 -4 -6 -26 -35 -47 -65 -21 -30 -43 -59 -49 -66 -5 -7 -16 -19 -22
-27 -7 -8 -13 -20 -13 -26 0 -5 -4 -10 -10 -10 -5 0 -10 -7 -10 -15 0 -8 -5
-15 -10 -15 -6 0 -15 -11 -20 -25 -5 -14 -13 -25 -17 -25 -5 0 -17 -16 -27
-35 -11 -19 -23 -35 -28 -35 -4 0 -8 -5 -8 -10 0 -6 -5 -16 -10 -23 -40 -47
-54 -65 -68 -89 -9 -16 -20 -28 -25 -28 -4 0 -6 -4 -2 -9 3 -6 -1 -13 -8 -18
-11 -7 -112 -143 -142 -191 -5 -9 -17 -22 -25 -29 -8 -7 -12 -13 -7 -13 7 0
-2 -12 -47 -63 -14 -15 -23 -27 -20 -27 3 0 -1 -7 -8 -15 -27 -30 -38 -44 -38
-50 0 -6 -1 -7 -50 -65 -16 -19 -30 -42 -30 -50 -4 -83 -1 -251 5 -259 3 -6 3
-11 -2 -11 -9 0 -8 -214 2 -229 3 -6 3 -11 -2 -11 -4 0 -8 -16 -8 -35 0 -19 3
-35 7 -35 4 0 3 -11 -2 -24 -6 -17 -5 -26 3 -30 8 -3 8 -5 1 -5 -7 -1 -10 -16
-7 -38 5 -54 8 -60 44 -78 26 -14 33 -15 40 -3 5 7 9 9 9 3 0 -7 456 -10 1348
-10 1567 1 1389 -15 1390 125 0 47 1 90 2 95 1 6 1 15 0 20 -1 6 -1 51 -1 100
1 112 1 151 -2 243 -1 39 1 72 5 72 4 0 5 6 2 14 -3 7 -6 50 -7 94 -3 126 29
117 -412 118 -243 0 -372 -3 -368 -9 4 -6 1 -7 -8 -1 -8 5 -212 9 -463 9 -304
0 -450 3 -453 10 -2 6 5 20 16 32 11 11 17 24 14 27 -4 3 -2 6 4 6 6 0 30 27
54 60 24 33 48 60 53 60 5 0 7 3 3 6 -5 6 42 71 81 112 6 7 12 16 12 20 0 4
13 21 28 39 53 61 62 73 54 73 -4 0 0 6 8 13 9 7 31 33 50 60 18 26 37 47 42
47 5 0 6 5 3 10 -3 5 -1 10 5 10 6 0 8 4 5 10 -3 6 -1 10 5 10 5 0 18 13 29
30 10 16 21 27 26 22 5 -4 5 -2 2 4 -4 7 5 23 20 38 14 14 23 26 19 26 -4 0 3
11 16 25 39 42 47 53 41 59 -4 3 1 6 10 6 10 0 16 3 15 8 -3 8 82 125 95 130
4 2 7 8 7 13 0 9 6 16 58 74 12 14 20 25 16 25 -4 0 3 8 14 19 12 10 19 21 16
24 -3 3 3 12 15 19 12 7 21 16 21 20 0 9 129 180 143 189 5 3 8 9 8 13 -2 7
16 30 42 54 9 9 17 22 17 28 0 7 4 14 8 16 13 5 97 122 94 131 -1 5 1 6 5 4 8
-5 36 19 31 26 -2 2 7 17 20 33 12 16 49 65 82 109 33 44 66 87 72 95 7 8 12
18 10 22 -1 5 3 8 10 8 6 0 9 3 5 6 -3 4 5 21 18 39 14 17 25 37 25 43 0 7 5
12 11 12 5 0 7 5 4 10 -3 6 -1 10 5 10 6 0 8 5 5 10 -3 6 -1 10 4 10 6 0 11 6
11 14 0 7 14 39 30 70 17 31 27 56 24 56 -4 0 -2 6 3 13 10 12 37 82 39 102 0
6 4 17 7 25 23 57 53 227 53 293 -1 26 3 47 7 47 4 0 3 9 -3 19 -6 12 -6 22
-1 25 7 5 8 41 1 41 -2 0 -3 18 -5 40 -1 22 -5 58 -9 80 -15 75 -16 80 -22
105 -3 14 -8 37 -11 53 -3 15 -9 27 -14 27 -4 0 -6 9 -4 20 2 11 -1 20 -6 20
-6 0 -7 5 -4 10 3 6 1 10 -6 10 -7 0 -10 3 -6 6 3 4 -6 30 -20 58 -15 28 -26
54 -25 59 1 4 -3 7 -8 7 -6 0 -10 7 -10 15 0 8 -5 15 -11 15 -5 0 -8 4 -5 9 3
5 -1 14 -9 21 -8 7 -15 17 -15 22 0 5 -11 21 -25 36 -14 15 -25 32 -25 38 0 7
-7 14 -15 18 -8 3 -15 10 -15 15 0 13 -136 151 -149 151 -6 0 -11 6 -11 14 0
7 -13 19 -30 26 -16 7 -27 16 -24 21 3 5 -2 9 -10 9 -9 0 -16 5 -16 11 0 5 -4
7 -10 4 -5 -3 -10 -1 -10 5 0 6 -4 8 -10 5 -5 -3 -10 1 -10 9 0 9 -6 16 -13
16 -8 0 -24 9 -37 20 -12 11 -27 17 -31 14 -5 -3 -9 0 -9 5 0 6 -7 11 -15 11
-8 0 -15 4 -15 9 0 8 -21 17 -58 26 -8 2 -22 11 -31 19 -10 9 -32 19 -49 22
-18 4 -35 11 -38 15 -3 5 -14 9 -25 9 -10 0 -19 4 -19 8 0 4 -8 9 -17 10 -23
2 -44 8 -63 15 -8 4 -26 8 -40 11 -14 2 -32 7 -40 10 -8 3 -31 8 -50 11 -19 3
-51 8 -70 10 -19 3 -67 7 -106 9 -39 1 -75 5 -80 9 -6 3 -15 3 -21 -1z"/>
<path d="M8987 6097 c3 -5 -3 -6 -15 -3 -12 4 -34 0 -52 -9 -16 -8 -30 -12
-30 -8 0 4 -7 -2 -15 -13 -8 -10 -15 -15 -15 -11 0 5 -7 1 -16 -7 -8 -9 -22
-16 -30 -16 -8 0 -14 -5 -14 -11 0 -5 -4 -7 -10 -4 -5 3 -10 1 -10 -5 0 -6 -4
-9 -9 -6 -5 3 -14 -1 -21 -9 -7 -8 -16 -12 -21 -9 -5 3 -12 -2 -15 -10 -3 -9
-15 -16 -25 -16 -10 0 -19 -5 -19 -11 0 -5 -4 -8 -9 -5 -4 3 -19 -3 -31 -14
-13 -11 -32 -20 -43 -20 -11 0 -18 -3 -14 -6 3 -3 -31 -25 -76 -48 -45 -22
-88 -47 -95 -54 -8 -6 -18 -10 -23 -7 -5 4 -9 1 -9 -4 0 -6 -4 -11 -9 -11 -5
0 -37 -16 -70 -34 -34 -19 -61 -33 -61 -30 0 3 -7 -2 -16 -10 -8 -9 -22 -16
-29 -16 -7 0 -20 -6 -27 -12 -17 -16 -86 -52 -90 -47 -2 2 -14 -6 -27 -18 -13
-12 -28 -20 -33 -17 -4 3 -8 0 -8 -6 0 -6 -4 -9 -9 -6 -5 3 -12 -1 -15 -10 -4
-9 -9 -14 -12 -11 -3 3 -28 -8 -55 -24 -28 -16 -52 -29 -55 -29 -3 0 -12 -7
-20 -15 -18 -18 -11 -70 14 -97 8 -10 12 -18 9 -18 -4 0 8 -28 25 -62 18 -35
31 -66 30 -70 -1 -5 3 -8 8 -8 5 0 9 -3 8 -7 -1 -5 14 -39 32 -78 19 -38 34
-72 35 -75 0 -3 21 -45 45 -95 24 -49 44 -93 44 -97 1 -3 11 -15 24 -26 27
-24 47 -20 172 28 47 18 91 33 97 33 7 0 13 4 13 9 0 4 6 8 14 8 7 0 27 7 42
15 16 8 36 15 45 15 9 0 19 3 23 8 4 4 11 7 14 8 4 0 21 6 37 13 17 6 44 16
60 22 17 6 39 15 50 19 29 12 87 30 96 30 4 0 6 -19 5 -42 -1 -24 1 -53 6 -66
4 -13 4 -21 0 -18 -10 6 -7 -98 4 -115 4 -7 3 -10 -4 -5 -7 4 -10 -1 -9 -14 1
-11 5 -20 10 -20 6 0 6 -5 0 -12 -10 -14 -10 -76 1 -103 3 -9 2 -14 -2 -11 -6
4 -8 -109 -2 -124 1 -3 1 -9 0 -15 -7 -30 -5 -71 4 -77 7 -5 6 -8 -2 -8 -8 0
-10 -5 -6 -12 10 -16 13 -48 4 -43 -9 6 -4 -101 6 -116 4 -7 3 -10 -4 -5 -7 4
-10 -1 -9 -14 1 -11 5 -20 10 -20 5 0 5 -6 -1 -12 -12 -15 -12 -25 -1 -56 5
-13 5 -21 1 -18 -7 4 -8 -69 -2 -84 1 -3 1 -9 0 -15 -8 -34 -5 -75 4 -75 6 0
5 -4 -3 -9 -9 -6 -10 -11 -2 -15 7 -5 8 -13 2 -24 -5 -9 -5 -26 0 -40 5 -14 5
-21 0 -17 -6 3 -9 -4 -8 -15 1 -11 5 -20 10 -20 6 0 6 -5 0 -12 -10 -14 -10
-76 1 -103 3 -9 2 -14 -2 -11 -10 6 -7 -138 4 -155 4 -7 3 -10 -2 -6 -12 7
-10 -135 2 -154 4 -7 3 -10 -4 -5 -7 4 -10 -1 -9 -14 1 -11 5 -20 10 -20 4 0
5 -6 0 -12 -10 -17 -11 -68 -1 -74 5 -3 5 -10 2 -16 -11 -18 -11 -72 0 -80 7
-5 6 -8 -2 -8 -8 0 -10 -5 -6 -12 10 -16 13 -48 4 -43 -9 6 -4 -101 6 -116 4
-7 3 -10 -3 -6 -11 7 -9 -95 3 -114 4 -7 3 -10 -2 -6 -8 5 -11 -66 -4 -83 1
-3 1 -9 0 -15 -8 -34 -5 -75 4 -75 6 0 5 -4 -3 -9 -9 -6 -10 -11 -2 -15 7 -5
8 -13 2 -24 -5 -9 -5 -26 0 -40 5 -13 5 -21 1 -18 -10 6 -7 -138 4 -155 4 -7
3 -10 -4 -5 -7 4 -10 -1 -9 -14 1 -11 5 -20 10 -20 5 0 5 -6 -1 -12 -12 -15
-12 -25 -1 -56 5 -13 5 -21 1 -18 -10 6 -7 -98 4 -115 4 -7 3 -10 -3 -6 -11 7
-9 -95 3 -114 4 -7 3 -10 -3 -6 -12 7 -10 -54 2 -73 5 -8 4 -11 -2 -7 -11 7
-9 -95 3 -114 4 -7 3 -10 -4 -5 -7 4 -10 -1 -9 -14 1 -11 5 -20 10 -20 5 0 5
-6 -1 -12 -12 -15 -12 -25 -1 -56 5 -13 5 -21 1 -18 -11 6 -8 -57 3 -74 5 -8
4 -11 -3 -6 -7 4 -10 -1 -9 -14 1 -11 5 -20 10 -20 5 0 5 -6 -1 -13 -15 -17
-15 -19 -3 -50 6 -16 7 -26 3 -23 -10 6 -8 -86 2 -103 4 -6 3 -11 -2 -11 -5 0
-8 -15 -6 -33 1 -17 3 -40 3 -50 1 -10 13 -22 29 -28 32 -13 282 -18 282 -6 0
4 6 5 13 0 6 -4 131 -7 276 -8 259 0 264 0 285 22 20 21 21 31 22 302 0 190
-3 281 -10 281 -8 0 -8 3 0 8 12 8 15 4142 3 4142 -5 0 -5 7 -2 17 4 10 2 14
-5 9 -6 -3 -13 -2 -17 4 -4 6 -11 8 -16 5 -5 -4 -9 -1 -9 5 0 6 -5 8 -11 5
-16 -10 -110 -12 -116 -2 -2 4 -12 2 -21 -5 -13 -11 -14 -11 -7 1 6 10 4 12
-5 6 -18 -11 -80 -14 -86 -3 -3 4 -10 5 -16 2 -15 -10 -99 -11 -105 -1 -2 4
-12 2 -21 -5 -13 -11 -14 -11 -7 1 6 10 4 12 -5 6 -18 -11 -80 -14 -86 -3 -3
4 -13 5 -22 0 -15 -6 -77 -8 -92 -2 -18 7 -48 5 -43 -3z"/>
<path d="M2917 5063 c-3 -2 -17 -6 -33 -9 -16 -3 -44 -9 -61 -15 -18 -6 -38
-7 -44 -3 -8 4 -9 3 -5 -4 6 -11 -6 -16 -26 -13 -5 0 -8 -3 -8 -8 0 -5 -11
-12 -25 -15 -14 -4 -25 -11 -25 -16 0 -6 -7 -10 -15 -10 -21 0 -73 -33 -121
-77 -13 -12 -24 -20 -24 -17 0 3 -17 -13 -37 -37 -21 -23 -48 -52 -60 -65 -13
-13 -23 -26 -23 -29 0 -3 -16 -21 -35 -39 -19 -19 -35 -39 -35 -44 0 -6 -9
-14 -20 -17 -11 -4 -19 -9 -16 -13 2 -4 -7 -16 -21 -27 -13 -11 -43 -37 -66
-57 -23 -21 -46 -38 -51 -38 -5 0 -14 -6 -20 -14 -12 -15 -140 -85 -165 -90
-9 -2 -29 -9 -46 -15 -16 -7 -37 -14 -45 -16 -8 -2 -15 -4 -15 -5 0 -2 -28 -9
-50 -12 -11 -2 -23 -7 -26 -11 -3 -5 -12 -10 -20 -11 -8 -1 -34 -9 -59 -16
-25 -8 -47 -14 -50 -15 -3 -1 -26 -5 -53 -9 -26 -5 -50 -12 -53 -17 -3 -5 -14
-5 -25 1 -11 7 -19 7 -19 1 0 -5 -8 -8 -17 -6 -10 1 -22 0 -28 -4 -11 -6 -13
-6 -58 -16 -57 -12 -228 -102 -258 -137 -9 -10 -20 -18 -23 -18 -9 0 -24 -15
-54 -54 -12 -16 -22 -25 -22 -20 0 5 -12 -9 -27 -31 -14 -22 -29 -42 -32 -45
-3 -3 -11 -14 -17 -25 -6 -11 -23 -41 -37 -67 -15 -27 -23 -48 -19 -48 4 0 2
-4 -3 -8 -11 -7 -43 -111 -51 -162 -2 -14 -8 -52 -13 -84 -9 -62 -7 -243 4
-336 4 -30 8 -68 10 -85 1 -16 4 -30 5 -30 1 0 3 -11 5 -25 2 -14 6 -41 10
-60 3 -19 8 -46 10 -60 2 -14 6 -36 10 -50 3 -14 10 -45 16 -70 5 -25 14 -63
20 -85 5 -22 14 -56 19 -75 4 -19 13 -50 18 -67 6 -18 9 -33 7 -33 -2 0 3 -16
11 -35 8 -19 11 -35 8 -35 -4 0 -2 -6 3 -12 6 -7 10 -20 10 -28 0 -19 7 -44
13 -50 9 -9 53 -134 54 -152 0 -10 4 -18 9 -18 5 0 7 -6 4 -14 -3 -7 0 -19 6
-25 7 -7 12 -15 13 -19 0 -4 8 -24 17 -45 9 -20 25 -54 34 -75 9 -20 16 -40
15 -44 -1 -5 3 -8 8 -8 6 0 10 -5 10 -11 0 -16 96 -181 121 -208 11 -11 17
-21 14 -21 -6 0 14 -24 83 -95 23 -25 47 -45 52 -45 6 0 10 -7 10 -16 0 -8 4
-13 9 -9 5 3 12 1 15 -4 9 -14 83 -50 90 -44 3 4 6 1 6 -5 0 -16 107 -35 161
-29 53 7 149 44 149 59 0 5 4 7 10 3 12 -7 123 105 146 147 33 65 68 133 69
138 1 3 4 12 8 20 9 22 38 112 42 130 2 8 13 51 25 95 12 44 23 89 25 100 2
11 8 40 13 64 6 25 9 49 6 53 -3 4 -1 8 5 8 5 0 8 11 6 25 -1 14 2 28 6 31 5
3 9 14 9 24 0 10 7 25 15 33 8 8 12 17 9 19 -2 3 11 29 31 58 19 28 35 56 35
60 0 4 20 29 43 54 24 25 42 46 39 46 -2 0 10 12 28 28 18 15 50 44 72 65 22
20 43 37 48 37 5 0 10 3 12 8 5 11 76 62 87 62 5 0 17 10 25 22 9 12 16 19 16
15 0 -8 104 54 108 65 2 5 8 6 13 2 5 -3 9 0 9 6 0 6 4 9 9 5 5 -3 17 2 25 11
9 8 16 12 16 8 0 -4 9 1 21 12 12 10 24 18 28 17 3 -2 29 8 56 22 64 31 210
81 260 89 21 4 45 12 54 19 12 10 13 9 7 -1 -6 -10 -1 -11 21 -5 68 19 302 -9
311 -37 2 -5 8 -7 14 -4 5 4 20 2 31 -4 21 -10 56 -24 67 -27 17 -4 88 -28
105 -35 57 -23 115 -40 153 -42 6 -1 12 -5 12 -9 0 -4 9 -5 20 -2 11 3 20 1
20 -3 0 -5 10 -10 23 -10 57 -3 124 -11 132 -15 19 -10 168 4 205 19 54 22 85
33 88 32 1 0 13 11 26 25 13 14 26 25 30 25 10 0 46 39 46 50 0 6 5 10 10 10
6 0 9 3 8 8 -1 4 9 27 22 52 21 39 25 58 25 145 0 98 -5 138 -25 189 -5 15 -7
26 -4 26 4 0 1 7 -6 15 -7 8 -9 15 -4 15 5 0 5 4 -1 8 -11 8 -36 69 -38 90 0
6 -4 12 -8 12 -4 0 -11 10 -15 23 -4 12 -15 33 -25 46 -10 13 -16 27 -13 32 3
5 0 9 -5 9 -6 0 -11 7 -11 15 0 8 -4 15 -10 15 -5 0 -10 5 -10 10 0 12 -41 73
-52 78 -5 2 -8 10 -8 17 0 8 -7 18 -16 23 -9 5 -16 13 -16 18 0 10 -33 55 -66
90 -13 13 -20 24 -17 24 4 0 0 6 -7 14 -7 7 -29 33 -50 57 -47 57 -72 86 -113
130 -19 20 -31 40 -27 44 4 4 2 5 -3 3 -12 -4 -105 88 -97 96 3 3 -2 6 -11 6
-10 0 -17 4 -17 8 0 9 -30 39 -137 139 -127 120 -166 153 -180 153 -8 0 -11 5
-8 10 3 6 -1 10 -9 10 -9 0 -16 4 -16 8 0 8 -72 60 -121 88 -10 6 -27 18 -37
27 -10 10 -24 17 -30 17 -7 0 -12 5 -12 12 0 6 -3 9 -6 6 -3 -4 -33 8 -67 26
-52 28 -127 58 -147 61 -3 0 -11 4 -17 8 -7 5 -17 5 -23 2 -5 -3 -10 -1 -10 6
0 8 -4 8 -15 -1 -12 -10 -16 -9 -20 2 -4 11 -34 14 -140 15 -74 0 -136 -1
-138 -4z m579 -595 c20 -13 45 -45 59 -73 40 -81 25 -164 -42 -233 -7 -7 -13
-10 -13 -6 0 4 -6 0 -12 -9 -14 -17 -77 -34 -118 -32 -36 3 -100 32 -100 46 0
7 -3 10 -6 6 -13 -13 -68 78 -58 95 3 4 1 8 -3 8 -5 0 -9 14 -9 30 -1 17 1 30
5 30 3 0 6 13 7 30 1 33 42 100 61 100 7 0 17 8 22 18 6 9 11 14 11 10 0 -4
10 -3 23 2 38 17 134 4 173 -22z m-180 -469 c3 -5 12 -9 20 -9 17 0 71 -50 76
-70 2 -8 6 -17 10 -20 7 -6 20 -58 19 -77 -1 -7 -2 -24 -3 -38 -1 -14 -6 -25
-11 -25 -4 0 -6 -4 -2 -9 3 -5 -2 -17 -11 -25 -8 -9 -12 -16 -8 -16 21 0 -78
-72 -105 -77 -45 -8 -93 -5 -123 7 -56 23 -129 114 -112 141 3 5 1 9 -4 9 -4
0 -8 20 -8 44 1 24 4 42 7 40 4 -2 10 8 14 23 12 49 84 104 150 115 30 5 84
-3 91 -13z m-1716 -463 c32 -14 50 -31 50 -47 0 -7 3 -9 7 -6 5 6 43 -64 42
-79 0 -3 8 -12 18 -21 10 -8 12 -11 4 -7 -9 5 -8 -2 5 -19 19 -27 44 -36 44
-16 0 5 5 7 10 4 6 -3 10 -1 10 4 0 6 6 11 14 11 7 0 25 9 39 20 15 12 29 21
32 20 3 0 18 6 33 14 73 38 173 3 188 -67 10 -43 11 -87 2 -87 -5 0 -6 -4 -3
-10 3 -5 1 -10 -5 -10 -6 0 -9 -4 -6 -8 3 -5 -4 -16 -15 -25 -10 -9 -19 -14
-19 -10 0 3 -9 -4 -19 -16 -11 -12 -22 -22 -25 -23 -19 0 -46 -12 -46 -19 0
-5 -9 -9 -20 -9 -11 0 -20 -4 -20 -10 0 -5 -6 -10 -14 -10 -22 0 -30 -19 -16
-35 7 -8 9 -15 4 -15 -5 0 -4 -4 1 -8 21 -15 86 -143 86 -169 -1 -46 -10 -68
-40 -99 -17 -19 -41 -34 -52 -34 -13 0 -18 -4 -13 -12 5 -7 3 -8 -6 -3 -7 5
-25 9 -39 11 -14 1 -29 2 -32 3 -17 3 -67 62 -89 106 -14 28 -28 52 -32 53 -5
2 -8 9 -8 17 0 7 -6 18 -14 24 -10 9 -25 5 -66 -16 -28 -16 -68 -36 -88 -47
-38 -19 -89 -27 -107 -17 -5 3 -12 6 -15 6 -10 0 -63 45 -54 45 5 0 3 4 -5 9
-18 11 -23 97 -8 126 16 31 48 56 132 104 57 31 74 45 64 52 -8 5 -9 9 -4 9 7
0 7 3 0 8 -9 6 -27 37 -73 127 -17 32 -24 105 -10 105 4 0 8 6 8 13 0 18 50
64 75 70 34 8 69 5 95 -7z"/>
</g>
</svg>
