<svg version="1.1" xmlns="http://www.w3.org/2000/svg" xmlns:xlink="http://www.w3.org/1999/xlink" width="121.33333" height="121.33333" viewBox="0,0,121.33333,121.33333"><g transform="translate(-179.33333,-119.33333)"><g data-paper-data="{&quot;isPaintingLayer&quot;:true}" fill-rule="nonzero" stroke-linejoin="miter" stroke-miterlimit="10" stroke-dasharray="" stroke-dashoffset="0" style="mix-blend-mode: normal"><path d="M264.99235,180c0,13.51047 -11.18947,24.46286 -24.99235,24.46286c-13.8029,0 -24.99235,-10.95239 -24.99235,-24.46286c0,-13.51047 11.18945,-24.46286 24.99235,-24.46286c13.8029,0 24.99235,10.95239 24.99235,24.46286z" data-paper-data="{&quot;origPos&quot;:null}" fill="#23a5d9" stroke="#000000" stroke-width="3" stroke-linecap="butt"/><path d="M224.53862,197.47347c13.25684,-6.82672 10.32079,-18.59488 23.68224,-19.89017c9.33567,-0.90502 14.75941,12.26539 14.75941,12.26539" data-paper-data="{&quot;origPos&quot;:null}" fill="none" stroke="#000000" stroke-width="3" stroke-linecap="round"/><path d="M215.96072,182.85929c0,0 11.689,-9.75779 31.51259,-10.6381c9.84173,-0.43706 15.82464,1.74252 15.82464,1.74252" data-paper-data="{&quot;origPos&quot;:null}" fill="none" stroke="#000000" stroke-width="2" stroke-linecap="round"/><path d="M239.1528,155.85485c0,0 6.98105,5.92275 8.45863,19.08521c2.00026,17.81841 -5.91704,29.20512 -5.91704,29.20512" data-paper-data="{&quot;origPos&quot;:null}" fill="none" stroke="#000000" stroke-width="2" stroke-linecap="round"/><path d="M253.44927,159.98492c0,0 2.42948,7.29686 -6.69088,7.1506c-6.61211,-0.10604 -21.58438,-5.5304 -21.58438,-5.5304" data-paper-data="{&quot;origPos&quot;:null}" fill="none" stroke="#000000" stroke-width="3" stroke-linecap="round"/><path d="M179.33334,240.66667v-121.33333h121.33333v121.33333z" fill="none" stroke="none" stroke-width="0" stroke-linecap="butt"/></g></g></svg>