<svg version="1.1" xmlns="http://www.w3.org/2000/svg" xmlns:xlink="http://www.w3.org/1999/xlink" width="185.20525" height="304.44352" viewBox="0,0,185.20525,304.44352"><defs><linearGradient x1="205.71853" y1="95.73486" x2="274.12978" y2="95.73486" gradientUnits="userSpaceOnUse" id="color-1"><stop offset="0" stop-color="#00a2ff"/><stop offset="1" stop-color="#a6ff3a"/></linearGradient></defs><g transform="translate(-147.6834,-27.68134)"><g data-paper-data="{&quot;isPaintingLayer&quot;:true}" fill-rule="nonzero" stroke-linejoin="miter" stroke-miterlimit="10" stroke-dasharray="" stroke-dashoffset="0" style="mix-blend-mode: normal"><path d="M151.4334,69.32008c0.38825,-28.10779 13.11772,-37.88874 31.35145,-37.88874c45.94196,0 84.19667,0 117.72036,0c17.92288,0 28.63344,11.45754 28.63344,38.16544c0,71.38976 0,175.91746 0,240.46154c0,12.95952 -4.66571,18.31682 -20.21619,18.31682c0,0 -105.10841,0.43542 -140.55423,0c-9.53698,-0.11716 -17.03843,-4.87435 -17.12692,-21.81343c0,0 -0.9712,-153.7847 0.19187,-237.98198z" fill="#ffffff" stroke="#000000" stroke-width="7.5" stroke-linecap="butt"/><text transform="translate(183.09389,170.00008) scale(0.5,0.5)" font-size="40" xml:space="preserve" fill="#000000" fill-rule="nonzero" stroke="#000000" stroke-width="1" stroke-linecap="butt" stroke-linejoin="miter" stroke-miterlimit="10" stroke-dasharray="" stroke-dashoffset="0" font-family="Sans Serif" font-weight="normal" text-anchor="start" style="mix-blend-mode: normal"><tspan x="0" dy="0">Unlocked !</tspan></text><g><path d="M256.56555,79.10345c18.03579,9.12491 28.28327,24.95568 14.54786,44.30503c-22.5665,26.39754 -59.96021,4.3023 -51.72948,-22.31861c0.09708,-0.25638 -4.53826,0.27395 -7.3486,-6.25389c-3.34755,-6.41341 1.29462,-10.97908 1.29462,-10.97908c0,0 -7.85337,-3.40287 -10.45088,-14.78899c-1.60482,-7.0346 2.9661,-14.68915 2.9661,-14.68915c0,0 31.79506,15.37162 50.72038,24.72469z" data-paper-data="{&quot;origPos&quot;:null,&quot;origRot&quot;:0}" fill="none" stroke="#000000" stroke-width="7.5" stroke-linecap="round"/><path d="M273.97002,103.60548c1.60743,14.13598 -9.09753,26.96102 -23.91033,28.64544c-14.81279,1.68442 -28.12406,-8.40955 -29.73151,-22.54552c-0.49673,-4.36812 1.37387,-10.20894 1.37387,-10.20894c0,0 -5.81721,0.05901 -7.25317,-8.75992c-0.77661,-4.76941 3.93843,-8.1182 3.93843,-8.1182c0,0 -18.25763,-5.23772 -10.93713,-23.58315l44.18543,21.55721c0,0 20.64293,8.13881 22.33439,23.01304z" data-paper-data="{&quot;origPos&quot;:null}" fill="url(#color-1)" stroke="none" stroke-width="0" stroke-linecap="butt"/></g><text transform="translate(196.81477,269.07178) scale(0.32896,0.32896)" font-size="40" xml:space="preserve" fill="#000000" fill-rule="nonzero" stroke="none" stroke-width="1" stroke-linecap="butt" stroke-linejoin="miter" stroke-miterlimit="10" stroke-dasharray="" stroke-dashoffset="0" font-family="Sans Serif" font-weight="normal" text-anchor="start" style="mix-blend-mode: normal"><tspan x="0" dy="0"> Thank you !</tspan></text><text transform="translate(166.76046,250.79516) scale(0.25665,0.25665)" font-size="40" xml:space="preserve" fill="#000000" fill-rule="nonzero" stroke="#000000" stroke-width="0" stroke-linecap="butt" stroke-linejoin="miter" stroke-miterlimit="10" stroke-dasharray="" stroke-dashoffset="0" font-family="Sans Serif" font-weight="normal" text-anchor="start" style="mix-blend-mode: normal"><tspan x="0" dy="0">You probably loved this game</tspan></text><g stroke="none" stroke-linecap="butt"><path d="M239.15671,202.36921l3.84546,7.79176c0.16255,0.32944 0.47683,0.55778 0.84036,0.61061l8.59872,1.24947c0.42041,0.06109 0.76969,0.35557 0.90098,0.75961c0.13128,0.40405 0.02179,0.84758 -0.28243,1.14412l-6.22208,6.06503c-0.26304,0.2564 -0.38308,0.62585 -0.32099,0.9879l1.46884,8.56398c0.0718,0.41872 -0.10032,0.84188 -0.44401,1.0916c-0.34369,0.24971 -0.79934,0.28265 -1.17538,0.08498l-7.69092,-4.04337c-0.32515,-0.17093 -0.71359,-0.17093 -1.03874,0l-7.69095,4.0433c-0.37604,0.19768 -0.83169,0.16473 -1.17538,-0.08498c-0.34369,-0.24971 -0.51581,-0.67288 -0.44401,-1.0916l1.46884,-8.56398c0.0621,-0.36205 -0.05791,-0.73148 -0.32094,-0.9879l-6.22215,-6.06503c-0.30422,-0.29656 -0.41369,-0.7401 -0.28241,-1.14415c0.1313,-0.40405 0.48059,-0.69852 0.90104,-0.75958l8.59872,-1.24947c0.36352,-0.05282 0.67778,-0.28114 0.84035,-0.61055l3.84539,-7.79176c0.18802,-0.38097 0.57601,-0.62216 1.00086,-0.62216c0.42484,0 0.81284,0.24119 1.00086,0.62216z" fill="#f9ee30" stroke-width="1"/><path d="M222.25586,232.06434v-31.53277h31.8v31.53277z" fill="none" stroke-width="0"/></g></g></g></svg>