<svg version="1.1" xmlns="http://www.w3.org/2000/svg" xmlns:xlink="http://www.w3.org/1999/xlink" width="46" height="46"><g transform="translate(-217,-157)"><g data-paper-data="{&quot;isPaintingLayer&quot;:true}" fill-rule="nonzero" stroke="#000000" stroke-linejoin="miter" stroke-miterlimit="10" stroke-dasharray="" stroke-dashoffset="0" style="mix-blend-mode: normal"><path d="M240,158.5c11.87412,0 21.5,9.62588 21.5,21.5c0,11.87412 -9.62588,21.5 -21.5,21.5c-11.87412,0 -21.5,-9.62588 -21.5,-21.5c0,-11.87412 9.62588,-21.5 21.5,-21.5z" data-paper-data="{&quot;origPos&quot;:null}" fill="#f8f8f8" stroke-width="3" stroke-linecap="butt"/><g data-paper-data="{&quot;origPos&quot;:null}"><path d="M235.36691,186.72892c0,0 -1.07165,-11.97384 -0.52304,-12.66731c0.4309,-0.54468 13.19206,-3.69962 13.51602,-3.29578c0.41258,0.51431 1.31016,13.35387 1.31016,13.35387" data-paper-data="{&quot;origPos&quot;:null}" fill="none" stroke-width="4" stroke-linecap="round"/><path d="M231.29939,187.07653c1.26498,-0.40658 3.57189,-0.14605 3.79748,0.32725c0.22559,0.4733 -0.61701,1.18659 -1.88199,1.59317c-1.26498,0.40658 -2.47333,0.3525 -2.69892,-0.1208c-0.22559,-0.4733 -0.48155,-1.39304 0.78343,-1.79962z" data-paper-data="{&quot;origPos&quot;:null,&quot;origRot&quot;:0}" fill="#000000" stroke-width="4.5" stroke-linecap="butt"/><path d="M249.37359,184.98238c0.22559,0.48659 -0.617,1.2199 -1.88199,1.6379c-1.26498,0.418 -2.47333,0.3624 -2.69892,-0.12419c-0.22559,-0.48659 -0.50613,-1.42739 0.75885,-1.84539c1.26498,-0.418 3.59647,-0.15491 3.82205,0.33167z" data-paper-data="{&quot;origPos&quot;:null,&quot;origRot&quot;:0}" fill="#000000" stroke-width="4.5" stroke-linecap="butt"/></g></g></g></svg>