<svg version="1.1" xmlns="http://www.w3.org/2000/svg" xmlns:xlink="http://www.w3.org/1999/xlink" width="124" height="124" viewBox="0,0,124,124"><defs><linearGradient x1="231.88072" y1="143.58322" x2="231.88072" y2="195.69522" gradientUnits="userSpaceOnUse" id="color-1"><stop offset="0" stop-color="#ff0000"/><stop offset="1" stop-color="#0083ff"/></linearGradient></defs><g transform="translate(-178,-118)"><g data-paper-data="{&quot;isPaintingLayer&quot;:true}" fill-rule="nonzero" stroke-linejoin="miter" stroke-miterlimit="10" stroke-dasharray="" stroke-dashoffset="0" style="mix-blend-mode: normal"><path d="M243.60631,158.85436c12.4971,6.3227 19.59763,17.29193 10.08029,30.6992c-15.63645,18.29099 -41.54675,2.98109 -35.84364,-15.46468c0.06727,-0.17765 -3.14458,0.18982 -5.09189,-4.33335c-2.31954,-4.44389 0.89705,-7.60747 0.89705,-7.60747c0,0 -5.44164,-2.35787 -7.24148,-10.24737c-1.11198,-4.87431 2.05523,-10.1782 2.05523,-10.1782c0,0 22.03099,10.65108 35.14444,17.13187z" data-paper-data="{&quot;origRot&quot;:0}" fill="none" stroke="#000000" stroke-width="7" stroke-linecap="round"/><path d="M256.0526,175.2272c1.14125,10.03626 -6.45906,19.14176 -16.97585,20.33767c-10.51677,1.1959 -19.9675,-5.97061 -21.10876,-16.00685c-0.35267,-3.10128 0.97542,-7.24814 0.97542,-7.24814c0,0 -4.13009,0.0419 -5.1496,-6.21936c-0.55138,-3.38618 2.7962,-5.76375 2.7962,-5.76375c0,0 -12.96254,-3.71868 -7.76514,-16.74355l31.37075,15.30517c0,0 14.65606,5.77838 15.85696,16.33879z" fill="url(#color-1)" stroke="none" stroke-width="0" stroke-linecap="butt"/><path d="M178,242v-124h124v124z" fill="none" stroke="none" stroke-width="0" stroke-linecap="butt"/></g></g></svg>