<svg version="1.1" xmlns="http://www.w3.org/2000/svg" xmlns:xlink="http://www.w3.org/1999/xlink" width="125.50056" height="26.31269" viewBox="0,0,125.50056,26.31269"><g transform="translate(-177.24974,-166.8437)"><g data-paper-data="{&quot;isPaintingLayer&quot;:true}" fill-rule="nonzero" stroke-linecap="butt" stroke-linejoin="miter" stroke-miterlimit="10" stroke-dasharray="" stroke-dashoffset="0" style="mix-blend-mode: normal"><g fill="#ffd870" stroke="none" stroke-width="0"><path d="M259.76876,190.28341v-20.8h8.02222v20.8z"/><path d="M251.89376,190.5334v-20.8h8.02222v20.8z"/><g><path d="M243.89376,190.40839v-20.8h8.02222v20.8z"/><path d="M236.01876,190.03339v-20.8h8.02222v20.8z"/><path d="M228.01876,190.70007v-20.8h8.02222v20.8z"/><path d="M196.85209,190.70007v-20.8h8.02222v20.8z"/><path d="M204.56042,190.53339v-20.8h8.02222v20.8z"/><path d="M212.18542,190.36673v-20.8h8.02222v20.8z"/><path d="M220.14376,190.36673v-20.8h8.02222v20.8z"/><path d="M189.14376,190.86673v-20.8h8.02222v20.8z"/><path d="M189.70001,191.02822c0,0 -8.83053,-0.50637 -8.85,-11.34226c-0.01639,-9.12216 8.65,-10.97043 8.65,-10.97043z"/></g></g><text transform="translate(218.02948,184.1298) scale(0.34415,0.34415)" font-size="40" xml:space="preserve" fill="#000000" fill-rule="nonzero" stroke="#000000" stroke-width="4" stroke-linecap="butt" stroke-linejoin="miter" stroke-miterlimit="10" stroke-dasharray="" stroke-dashoffset="0" font-family="Sans Serif" font-weight="normal" text-anchor="start" style="mix-blend-mode: normal"><tspan x="0" dy="0">11 / 15</tspan></text><path d="M188.09973,191.15639c0,0 -8.83053,-0.50637 -8.85,-11.34226c-0.01639,-9.12216 8.65,-10.97043 8.65,-10.97043h103.75c0,0 9.1834,1.99811 9.1,11.22043c-0.0903,9.98421 -8.75,11.09226 -8.75,11.09226z" fill="none" stroke="#000000" stroke-width="4"/></g></g></svg>