<svg version="1.1" xmlns="http://www.w3.org/2000/svg" xmlns:xlink="http://www.w3.org/1999/xlink" width="124" height="124" viewBox="0,0,124,124"><g transform="translate(-178,-118)"><g data-paper-data="{&quot;isPaintingLayer&quot;:true}" fill-rule="nonzero" stroke-linejoin="miter" stroke-miterlimit="10" stroke-dasharray="" stroke-dashoffset="0" style="mix-blend-mode: normal"><path d="M288.51399,180c0,26.2259 -21.72048,47.48617 -48.51399,47.48617c-26.79355,0 -48.51399,-21.26027 -48.51399,-47.48617c0,-26.2259 21.72044,-47.48617 48.51399,-47.48617c26.79355,0 48.51399,21.26027 48.51399,47.48617z" fill="#ffffff" stroke="#000000" stroke-width="5" stroke-linecap="butt"/><path d="M234.43153,169.65581l12.12732,0.40826l5.75263,9.59413l-5.97435,10.68597l-13.41553,-0.19877l-5.23308,-10.85091z" data-paper-data="{&quot;origRot&quot;:0}" fill="#000000" stroke="#000000" stroke-width="3" stroke-linecap="round"/><path d="M216.60085,200.02661l7.62231,7.1674l-2.28761,8.82212l-4.07986,4.23903l-14.88943,-14.37094l3.86094,-4.72496z" data-paper-data="{&quot;origRot&quot;:0}" fill="#000000" stroke="#000000" stroke-width="3" stroke-linecap="round"/><path d="M274.31513,200.19421l3.65329,4.47083l-14.08862,13.59803l-3.86041,-4.01104l-2.16458,-8.34762l7.21236,-6.78193z" data-paper-data="{&quot;origRot&quot;:0,&quot;index&quot;:null}" fill="#000000" stroke="#000000" stroke-width="3" stroke-linecap="round"/><path d="M263.74128,159.97752l-7.43945,-6.99545l2.23273,-8.61045l3.98197,-4.13734l14.53223,14.02618l-3.7683,4.6116z" data-paper-data="{&quot;origRot&quot;:0,&quot;index&quot;:null}" fill="#000000" stroke="#000000" stroke-width="3" stroke-linecap="round"/><path d="M206.61955,157.33255l-3.65329,-4.47083l14.08862,-13.59803l3.86041,4.01104l2.16458,8.34762l-7.21236,6.78193z" data-paper-data="{&quot;origRot&quot;:0,&quot;index&quot;:null}" fill="#000000" stroke="#000000" stroke-width="3" stroke-linecap="round"/><path d="M178,242v-124h124v124z" fill="none" stroke="none" stroke-width="0" stroke-linecap="butt"/></g></g></svg>