<svg version="1.1" xmlns="http://www.w3.org/2000/svg" xmlns:xlink="http://www.w3.org/1999/xlink" width="185.20525" height="304.44352" viewBox="0,0,185.20525,304.44352"><defs><linearGradient x1="240.34335" y1="59.85242" x2="240.34335" y2="130.80267" gradientUnits="userSpaceOnUse" id="color-1"><stop offset="0" stop-color="#ff0000"/><stop offset="1" stop-color="#008dff"/></linearGradient></defs><g transform="translate(-147.68339,-27.77811)"><g data-paper-data="{&quot;isPaintingLayer&quot;:true}" fill-rule="nonzero" stroke-linejoin="miter" stroke-miterlimit="10" stroke-dasharray="" stroke-dashoffset="0" style="mix-blend-mode: normal"><path d="M151.43339,69.41685c0.38825,-28.10779 13.11772,-37.88874 31.35145,-37.88874c45.94196,0 84.19667,0 117.72036,0c17.92288,0 28.63344,11.45754 28.63344,38.16544c0,71.38976 0,175.91746 0,240.46154c0,12.95952 -4.66571,18.31682 -20.21619,18.31682c0,0 -105.10841,0.43542 -140.55423,0c-9.53698,-0.11716 -17.03843,-4.87435 -17.12692,-21.81343c0,0 -0.9712,-153.7847 0.19187,-237.98198z" fill="#ffffff" stroke="#000000" stroke-width="7.5" stroke-linecap="butt"/><text transform="translate(173.0938,170.00002) scale(0.5,0.5)" font-size="40" xml:space="preserve" fill="#000000" fill-rule="nonzero" stroke="#000000" stroke-width="1" stroke-linecap="butt" stroke-linejoin="miter" stroke-miterlimit="10" stroke-dasharray="" stroke-dashoffset="0" font-family="Sans Serif" font-weight="normal" text-anchor="start" style="mix-blend-mode: normal"><tspan x="0" dy="0">Unlock with...</tspan></text><text transform="translate(200.5938,265.9886) scale(0.36206,0.36206)" font-size="40" xml:space="preserve" fill="#000000" fill-rule="nonzero" stroke="#000000" stroke-width="2" stroke-linecap="butt" stroke-linejoin="miter" stroke-miterlimit="10" stroke-dasharray="" stroke-dashoffset="0" font-family="Sans Serif" font-weight="normal" text-anchor="start" style="mix-blend-mode: normal"><tspan x="0" dy="0">Best :</tspan></text><g><path d="M256.42948,79.27888c17.434,8.82044 27.33955,24.123 14.06244,42.82673c-21.81353,25.51673 -57.95955,4.15875 -50.00345,-21.57391c0.09384,-0.24782 -4.38683,0.26481 -7.10341,-6.04522c-3.23586,-6.19942 1.25143,-10.61275 1.25143,-10.61275c0,0 -7.59133,-3.28933 -10.10217,-14.29553c-1.55127,-6.79989 2.86713,-14.19903 2.86713,-14.19903c0,0 30.73419,14.85872 49.02803,23.89971z" data-paper-data="{&quot;origPos&quot;:null,&quot;origRot&quot;:0}" fill="none" stroke="#000000" stroke-width="7.5" stroke-linecap="round"/><path d="M273.25323,102.93555c1.55379,13.66431 -8.79397,26.06142 -23.11253,27.68963c-14.31853,1.62822 -27.18566,-8.12894 -28.73947,-21.79325c-0.48015,-4.22237 1.32802,-9.8683 1.32802,-9.8683c0,0 -5.62311,0.05704 -7.01116,-8.46763c-0.7507,-4.61028 3.80703,-7.84732 3.80703,-7.84732c0,0 -17.64844,-5.06296 -10.5722,-22.79626l42.71112,20.83792c0,0 19.95415,7.86724 21.58917,22.24517z" data-paper-data="{&quot;origPos&quot;:null}" fill="url(#color-1)" stroke="none" stroke-width="0" stroke-linecap="butt"/></g><text transform="translate(161.31456,227.75096) scale(0.32896,0.32896)" font-size="40" xml:space="preserve" fill="#000000" fill-rule="nonzero" stroke="none" stroke-width="1" stroke-linecap="butt" stroke-linejoin="miter" stroke-miterlimit="10" stroke-dasharray="" stroke-dashoffset="0" font-family="Sans Serif" font-weight="normal" text-anchor="start" style="mix-blend-mode: normal"><tspan x="0" dy="0">  Get over a score of 120</tspan></text></g></g></svg>