<svg version="1.1" xmlns="http://www.w3.org/2000/svg" xmlns:xlink="http://www.w3.org/1999/xlink" width="265.77859" height="258.83352" viewBox="0,0,265.77859,258.83352"><g transform="translate(-60.55874,-51.4061)"><g data-paper-data="{&quot;isPaintingLayer&quot;:true}" fill-rule="nonzero" stroke-linejoin="miter" stroke-miterlimit="10" stroke-dasharray="" stroke-dashoffset="0" style="mix-blend-mode: normal"><text transform="translate(91.07208,72.25) scale(0.47917,0.47917)" font-size="40" xml:space="preserve" fill="#000000" fill-rule="nonzero" stroke="#000000" stroke-width="1" stroke-linecap="butt" stroke-linejoin="miter" stroke-miterlimit="10" stroke-dasharray="" stroke-dashoffset="0" font-family="Sans Serif" font-weight="normal" text-anchor="start" style="mix-blend-mode: normal"><tspan x="0" dy="0">Don't touch the top.</tspan></text><text transform="translate(61.03791,249.25) scale(0.47917,0.47917)" font-size="40" xml:space="preserve" fill="#000000" fill-rule="nonzero" stroke="#000000" stroke-width="2" stroke-linecap="butt" stroke-linejoin="miter" stroke-miterlimit="10" stroke-dasharray="" stroke-dashoffset="0" font-family="Sans Serif" font-weight="normal" text-anchor="start" style="mix-blend-mode: normal"><tspan x="0" dy="0">Tap to jump.</tspan></text><text transform="translate(105.65708,304.25) scale(0.47917,0.47917)" font-size="40" xml:space="preserve" fill="#000000" fill-rule="nonzero" stroke="#000000" stroke-width="1" stroke-linecap="butt" stroke-linejoin="miter" stroke-miterlimit="10" stroke-dasharray="" stroke-dashoffset="0" font-family="Sans Serif" font-weight="normal" text-anchor="start" style="mix-blend-mode: normal"><tspan x="0" dy="0">Don't touch the ground.</tspan></text><path d="M219.41793,248.92108c3.1888,-4.25542 6.57663,-9.33592 8.55418,-14.92384c0.51736,-1.63501 -6.55058,-1.76692 -6.71313,-2.27154c-0.19898,-1.15784 11.3828,-8.17492 14.16356,-7.03214c2.81899,0.92067 7.43098,15.27601 5.66604,16.02224c-0.19567,0.01105 -4.9346,-5.34735 -5.76058,-3.43835c-1.7383,5.66004 -4.41875,12.07483 -7.2794,16.15436c-1.57955,-0.67158 -6.96904,-3.37202 -8.63068,-4.51072z" data-paper-data="{&quot;origRot&quot;:0}" fill="#ffffff" stroke="#000000" stroke-width="2" stroke-linecap="round"/><path d="M222.14124,219.45238l10.73422,-7.26544l-10.59481,-7.17109l3.62454,-2.54762l10.59481,7.3598l10.4554,-7.17108l3.76394,2.35891l-10.59481,7.17109l10.73422,7.17108l-3.62454,2.54762l-10.59481,-7.26544l-10.87362,7.3598z" fill="#ff0000" stroke="#0d0d0d" stroke-width="2" stroke-linecap="round"/><path d="M229.04861,128.5682c2.86065,4.07954 5.5411,10.49432 7.2794,16.15436c0.82599,1.909 5.56491,-3.44941 5.76058,-3.43836c1.76494,0.74624 -2.84706,15.10157 -5.66604,16.02225c-2.78077,1.14277 -14.36255,-5.8743 -14.16357,-7.03215c0.16254,-0.50463 7.23048,-0.63653 6.71312,-2.27155c-1.97754,-5.58792 -5.36538,-10.66842 -8.55417,-14.92384c1.66163,-1.13871 7.05112,-3.83914 8.63067,-4.51072z" data-paper-data="{&quot;origRot&quot;:0,&quot;index&quot;:null}" fill="#6de600" stroke="#000000" stroke-width="2" stroke-linecap="round"/></g></g></svg>