<svg version="1.1" xmlns="http://www.w3.org/2000/svg" xmlns:xlink="http://www.w3.org/1999/xlink" width="46" height="46"><g transform="translate(-217,-157)"><g data-paper-data="{&quot;isPaintingLayer&quot;:true}" fill-rule="nonzero" stroke="#000000" stroke-linejoin="miter" stroke-miterlimit="10" stroke-dasharray="" stroke-dashoffset="0" style="mix-blend-mode: normal"><path d="M240,158.5c11.87412,0 21.5,9.62588 21.5,21.5c0,11.87412 -9.62588,21.5 -21.5,21.5c-11.87412,0 -21.5,-9.62588 -21.5,-21.5c0,-11.87412 9.62588,-21.5 21.5,-21.5z" data-paper-data="{&quot;origPos&quot;:null}" fill="#f8f8f8" stroke-width="3" stroke-linecap="butt"/><g fill="#000000"><path d="M227.61562,184.45581c-0.44392,-0.68585 -0.47566,-7.2175 0.08929,-8.18756c0.47949,-0.82332 5.57339,-0.29231 5.57339,-0.29231c0,0 5.22442,-6.4254 5.84185,-5.69941c0.68119,0.80096 0.70129,18.59421 0.17857,19.42204c-0.52272,0.82783 -6.13759,-4.87824 -6.13759,-4.87824c0,0 -5.01385,0.4569 -5.54551,-0.36451z" data-paper-data="{&quot;origPos&quot;:null}" stroke-width="3.5" stroke-linecap="butt"/><path d="M244.5378,182.44771l-0.07522,-4.44371" data-paper-data="{&quot;origPos&quot;:null}" stroke-width="2.5" stroke-linecap="round"/><path d="M248.56555,185.92084l-0.07522,-11.83453" data-paper-data="{&quot;origPos&quot;:null}" stroke-width="2.5" stroke-linecap="round"/><path d="M252.71837,183.70519l-0.07522,-7.19526" data-paper-data="{&quot;origPos&quot;:null}" stroke-width="2.5" stroke-linecap="round"/></g></g></g></svg>