<svg version="1.1" xmlns="http://www.w3.org/2000/svg" xmlns:xlink="http://www.w3.org/1999/xlink" width="28.625" height="28.625" viewBox="0,0,28.625,28.625"><g transform="translate(-226.1875,-166.1875)"><g data-paper-data="{&quot;isPaintingLayer&quot;:true}" fill-rule="nonzero" stroke-linejoin="miter" stroke-miterlimit="10" stroke-dasharray="" stroke-dashoffset="0" style="mix-blend-mode: normal"><path d="M240.16744,173.68601c3.4838,1.76257 5.4632,4.82044 2.81006,8.55797c-4.35895,5.09895 -11.58192,0.83104 -9.99207,-4.31106c0.01875,-0.04952 -0.87661,0.05292 -1.41946,-1.208c-0.64662,-1.23881 0.25007,-2.12072 0.25007,-2.12072c0,0 -1.51695,-0.6573 -2.0187,-2.85664c-0.30999,-1.3588 0.57293,-2.83736 0.57293,-2.83736c0,0 6.14155,2.96917 9.79717,4.77581z" data-paper-data="{&quot;origPos&quot;:null,&quot;origRot&quot;:0}" fill="none" stroke="#000000" stroke-width="1" stroke-linecap="round"/><path d="M244.03412,178.54052c0.33325,2.91585 -1.88609,5.56128 -4.95707,5.90872c-3.07097,0.34744 -5.83066,-1.73465 -6.16391,-4.65048c-0.10298,-0.90102 0.28483,-2.10581 0.28483,-2.10581c0,0 -1.20602,0.01217 -1.50372,-1.80692c-0.16101,-0.98379 0.81651,-1.67455 0.81651,-1.67455c0,0 -3.78515,-1.08039 -2.26748,-4.86452l9.16048,4.44663c0,0 4.27967,1.6788 4.63034,4.74692z" data-paper-data="{&quot;origPos&quot;:null}" fill="#000000" stroke="#000000" stroke-width="1" stroke-linecap="butt"/><path d="M226.1875,194.8125v-28.625h28.625v28.625z" fill="none" stroke="none" stroke-width="none" stroke-linecap="butt"/></g></g></svg>