<svg version="1.1" xmlns="http://www.w3.org/2000/svg" xmlns:xlink="http://www.w3.org/1999/xlink" width="124" height="124" viewBox="0,0,124,124"><g transform="translate(-178,-118)"><g data-paper-data="{&quot;isPaintingLayer&quot;:true}" fill-rule="nonzero" stroke-linejoin="miter" stroke-miterlimit="10" stroke-dasharray="" stroke-dashoffset="0" style="mix-blend-mode: normal"><path d="M287.99235,180c0,25.94391 -21.48693,46.97558 -47.99235,46.97558c-26.50545,0 -47.99235,-21.03167 -47.99235,-46.97558c0,-25.94391 21.4869,-46.97558 47.99235,-46.97558c26.50545,0 47.99235,21.03167 47.99235,46.97558z" fill="#23a5d9" stroke="#000000" stroke-width="5" stroke-linecap="butt"/><path d="M210.3098,213.55398c25.45687,-13.10922 19.81882,-35.70741 45.47657,-38.19473c17.92712,-1.73789 28.34222,23.553 28.34222,23.553" fill="none" stroke="#000000" stroke-width="5" stroke-linecap="round"/><path d="M193.83781,185.49064c0,0 22.44617,-18.7377 60.51305,-20.42815c18.89889,-0.83928 30.38777,3.34613 30.38777,3.34613" fill="none" stroke="#000000" stroke-width="3.5" stroke-linecap="round"/><path d="M238.37314,133.63451c0,0 13.40558,11.37335 16.24295,36.64898c3.84106,34.21636 -11.36238,56.08205 -11.36238,56.08205" fill="none" stroke="#000000" stroke-width="3.5" stroke-linecap="round"/><path d="M265.82639,141.56541c0,0 4.66529,14.01203 -12.84837,13.73117c-12.69711,-0.20363 -41.44809,-10.61993 -41.44809,-10.61993" fill="none" stroke="#000000" stroke-width="5" stroke-linecap="round"/><path d="M178,242v-124h124v124z" fill="none" stroke="none" stroke-width="0" stroke-linecap="butt"/></g></g></svg>