<svg version="1.1" xmlns="http://www.w3.org/2000/svg" xmlns:xlink="http://www.w3.org/1999/xlink" width="433.03225" height="350.18115" viewBox="0,0,433.03225,350.18115"><g transform="translate(-14.11026,3.90674)"><g data-paper-data="{&quot;isPaintingLayer&quot;:true}" fill-rule="nonzero" stroke-linecap="butt" stroke-linejoin="miter" stroke-miterlimit="10" stroke-dasharray="" stroke-dashoffset="0" style="mix-blend-mode: normal"><path d="M260.68093,13.61698c-0.86532,-0.79106 -1.01358,-2.98983 -1.01358,-2.98983v-10.37287c0,0 0.12953,-1.65501 1.31389,-2.59322c1.18781,-0.94093 3.33721,-1.0678 3.33721,-1.0678h31.15795c0,0 2.03539,0.28245 3.07634,1.0678c1.04095,0.78533 1.3139,2.59322 1.3139,2.59322v10.67796c0,0 -0.21006,1.82256 -1.12619,2.59322c-0.91613,0.77066 -3.07635,0.91526 -3.07635,0.91526h-31.72104c0,0 -2.39682,-0.03267 -3.26214,-0.82373z" data-paper-data="{&quot;origPos&quot;:null}" fill="#c2b8a3" stroke="#a99e88" stroke-width="1"/><path d="M44.62385,102.69222c-0.86531,-0.68964 -1.01357,-2.60652 -1.01357,-2.60652v-9.04302c0,0 0.12953,-1.44284 1.3139,-2.26076c1.18781,-0.8203 3.33721,-0.9309 3.33721,-0.9309h31.15796c0,0 2.0354,0.24625 3.07635,0.9309c1.04095,0.68465 1.3139,2.26076 1.3139,2.26076v9.30899c0,0 -0.21006,1.5889 -1.12619,2.26076c-0.91613,0.67186 -3.07635,0.79791 -3.07635,0.79791h-31.72104c0,0 -2.39682,-0.02848 -3.26214,-0.71812z" data-paper-data="{&quot;origPos&quot;:null}" fill="#c2b8a3" stroke="#a99e88" stroke-width="1"/><path d="M69.68099,15.61698c-0.86531,-0.79106 -1.01358,-2.98983 -1.01358,-2.98983v-10.37287c0,0 0.12953,-1.65501 1.31389,-2.59322c1.1878,-0.94093 3.33722,-1.0678 3.33722,-1.0678h31.15795c0,0 2.0354,0.28245 3.07634,1.0678c1.04094,0.78533 1.3139,2.59322 1.3139,2.59322v10.67796c0,0 -0.21006,1.82256 -1.12619,2.59322c-0.91613,0.77066 -3.07635,0.91526 -3.07635,0.91526h-31.72104c0,0 -2.39683,-0.03267 -3.26214,-0.82373z" data-paper-data="{&quot;origPos&quot;:null}" fill="#c2b8a3" stroke="#a99e88" stroke-width="1"/><path d="M116.20498,31.04189c-0.6835,-0.48065 -0.80061,-1.81663 -0.80061,-1.81663v-6.3026c0,0 0.10231,-1.0056 1.03782,-1.57566c0.93823,-0.57172 2.63602,-0.6488 2.63602,-0.6488h24.61123c0,0 1.60774,0.17163 2.42996,0.6488c0.82223,0.47717 1.03782,1.57566 1.03782,1.57566v6.48798c0,0 -0.16592,1.10739 -0.88956,1.57565c-0.72364,0.46826 -2.42996,0.55611 -2.42996,0.55611h-25.05601c0,0 -1.89322,-0.01985 -2.57671,-0.5005z" data-paper-data="{&quot;origPos&quot;:null}" fill="#c2b8a3" stroke="#a99e88" stroke-width="1"/><path d="M15.62384,34.02767c-0.86531,-0.68964 -1.01357,-2.60652 -1.01357,-2.60652v-9.04302c0,0 0.12953,-1.44284 1.3139,-2.26076c1.18781,-0.8203 3.33721,-0.9309 3.33721,-0.9309h31.15796c0,0 2.0354,0.24625 3.07635,0.9309c1.04095,0.68465 1.31389,2.26076 1.31389,2.26076v9.30899c0,0 -0.21006,1.5889 -1.12619,2.26076c-0.91613,0.67186 -3.07635,0.79792 -3.07635,0.79792h-31.72104c0,0 -2.39682,-0.02848 -3.26214,-0.71812z" data-paper-data="{&quot;origPos&quot;:null}" fill="#c2b8a3" stroke="#a99e88" stroke-width="1"/><path d="M232.81441,335.05628c-0.86531,-0.68964 -1.01358,-2.60652 -1.01358,-2.60652v-9.04302c0,0 0.12953,-1.44284 1.31389,-2.26076c1.18781,-0.8203 3.33722,-0.9309 3.33722,-0.9309h31.15795c0,0 2.03541,0.24625 3.07635,0.9309c1.04095,0.68465 1.31388,2.26076 1.31388,2.26076v9.309c0,0 -0.21006,1.58889 -1.12619,2.26075c-0.91613,0.67186 -3.07635,0.79792 -3.07635,0.79792h-31.72104c0,0 -2.39682,-0.02849 -3.26214,-0.71813z" data-paper-data="{&quot;origPos&quot;:null}" fill="#c2b8a3" stroke="#a99e88" stroke-width="1"/><path d="M157.18892,281.49632c-0.86532,-0.6085 -1.01357,-2.29987 -1.01357,-2.29987v-7.97914c0,0 0.12953,-1.27309 1.31388,-1.99479c1.1878,-0.72379 3.33722,-0.82138 3.33722,-0.82138h31.15795c0,0 2.0354,0.21727 3.07635,0.82138c1.04095,0.60411 1.3139,1.99479 1.3139,1.99479v8.21382c0,0 -0.21006,1.40197 -1.12619,1.99478c-0.91613,0.59282 -3.07635,0.70404 -3.07635,0.70404h-31.72104c0,0 -2.39683,-0.02514 -3.26214,-0.63364z" fill="#c2b8a3" stroke="#a99e88" stroke-width="1"/><path d="M131.48791,301.83284c-0.68349,-0.48065 -0.80061,-1.81663 -0.80061,-1.81663v-6.30262c0,0 0.10231,-1.00559 1.03782,-1.57565c0.93823,-0.57171 2.63602,-0.6488 2.63602,-0.6488h24.61123c0,0 1.60773,0.17163 2.42996,0.6488c0.82223,0.47717 1.03782,1.57565 1.03782,1.57565v6.48798c0,0 -0.16593,1.10739 -0.88957,1.57565c-0.72364,0.46826 -2.42997,0.55611 -2.42997,0.55611h-25.056c0,0 -1.89323,-0.01985 -2.57672,-0.5005z" fill="#c2b8a3" stroke="#a99e88" stroke-width="1"/><path d="M338.1055,268.56822c-0.78046,-0.54884 -0.91418,-2.07436 -0.91418,-2.07436v-7.19676c0,0 0.11683,-1.14825 1.18506,-1.79919c1.07134,-0.65283 3.00999,-0.74084 3.00999,-0.74084h28.10282c0,0 1.83582,0.19597 2.7747,0.74084c0.93888,0.54487 1.18506,1.79919 1.18506,1.79919v7.40843c0,0 -0.18946,1.2645 -1.01576,1.79919c-0.8263,0.53469 -2.7747,0.63501 -2.7747,0.63501h-28.6107c0,0 -2.16181,-0.02267 -2.94227,-0.57151z" data-paper-data="{&quot;origPos&quot;:null}" fill="#c2b8a3" stroke="#a99e88" stroke-width="1"/><path d="M51.64221,227.0251c-0.86531,-0.60851 -1.01357,-2.29987 -1.01357,-2.29987v-7.97914c0,0 0.12953,-1.27309 1.31388,-1.99479c1.18781,-0.72379 3.33722,-0.82138 3.33722,-0.82138h31.15795c0,0 2.0354,0.21727 3.07635,0.82138c1.04094,0.60411 1.3139,1.99479 1.3139,1.99479v8.21382c0,0 -0.21006,1.40197 -1.12619,1.99479c-0.91613,0.59282 -3.07635,0.70404 -3.07635,0.70404h-31.72104c0,0 -2.39683,-0.02513 -3.26214,-0.63364z" fill="#c2b8a3" stroke="#a99e88" stroke-width="1"/><path d="M379.81444,345.05628c-0.86531,-0.68964 -1.01357,-2.60652 -1.01357,-2.60652v-9.04302c0,0 0.12953,-1.44283 1.31389,-2.26075c1.1878,-0.8203 3.33722,-0.9309 3.33722,-0.9309h31.15795c0,0 2.03541,0.24625 3.07635,0.9309c1.04095,0.68465 1.31388,2.26075 1.31388,2.26075v9.309c0,0 -0.21006,1.58889 -1.12619,2.26075c-0.91613,0.67186 -3.07635,0.79792 -3.07635,0.79792h-31.72104c0,0 -2.39683,-0.02849 -3.26214,-0.71813z" data-paper-data="{&quot;origPos&quot;:null}" fill="#c2b8a3" stroke="#a99e88" stroke-width="1"/><path d="M415.69028,299.67538c-0.68349,-0.48065 -0.80061,-1.81663 -0.80061,-1.81663v-6.30262c0,0 0.10231,-1.00559 1.03782,-1.57565c0.93823,-0.57171 2.63602,-0.6488 2.63602,-0.6488h24.61123c0,0 1.60773,0.17163 2.42996,0.6488c0.82223,0.47717 1.03782,1.57565 1.03782,1.57565v6.48798c0,0 -0.16593,1.10739 -0.88957,1.57565c-0.72364,0.46826 -2.42997,0.55612 -2.42997,0.55612h-25.056c0,0 -1.89323,-0.01985 -2.57672,-0.5005z" data-paper-data="{&quot;origPos&quot;:null}" fill="#c2b8a3" stroke="#a99e88" stroke-width="1"/><path d="M392.81718,191.29657c-0.86531,-0.68964 -1.01357,-2.60652 -1.01357,-2.60652v-9.04302c0,0 0.12953,-1.44284 1.31389,-2.26076c1.18781,-0.8203 3.33721,-0.9309 3.33721,-0.9309h31.15796c0,0 2.0354,0.24624 3.07635,0.9309c1.04095,0.68465 1.31389,2.26076 1.31389,2.26076v9.30899c0,0 -0.21006,1.5889 -1.12619,2.26076c-0.91613,0.67185 -3.07635,0.79791 -3.07635,0.79791h-31.72104c0,0 -2.39682,-0.02848 -3.26214,-0.71812z" fill="#c2b8a3" stroke="#a99e88" stroke-width="1"/><g stroke="#000000"><path d="M174.26836,57.7194c0.02719,-10.82549 9.36391,-9.70867 22.37992,-9.70867c32.79513,0 60.10289,0 84.03341,0c12.79404,0 19.93966,-0.59715 20.43966,11.35967c0.51207,12.24531 0,18.32373 0,29.40451c0,11.81538 -8.08944,10.21438 -22.04539,10.21438c0,0 -57.38741,0 -82.96293,0c-14.41286,0 -21.68788,0.98185 -21.98168,-11.50671c0,0 -0.08607,-17.17517 0.13701,-29.76318z" fill="#ffffff" stroke-width="5"/><text transform="translate(181.69792,78.62996) scale(0.42055,0.42055)" font-size="40" xml:space="preserve" fill="#000000" fill-rule="nonzero" stroke="#000000" stroke-width="2" stroke-linecap="butt" stroke-linejoin="miter" stroke-miterlimit="10" stroke-dasharray="" stroke-dashoffset="0" font-family="Sans Serif" font-weight="normal" text-anchor="start" style="mix-blend-mode: normal"><tspan x="0" dy="0">SCOREBOARD</tspan></text></g></g></g></svg>