<svg version="1.1" xmlns="http://www.w3.org/2000/svg" xmlns:xlink="http://www.w3.org/1999/xlink" width="46" height="46"><g transform="translate(-217,-157)"><g data-paper-data="{&quot;isPaintingLayer&quot;:true}" fill-rule="nonzero" stroke-linejoin="miter" stroke-miterlimit="10" stroke-dasharray="" stroke-dashoffset="0" style="mix-blend-mode: normal"><path d="M240,158.5c11.87412,0 21.5,9.62588 21.5,21.5c0,11.87412 -9.62588,21.5 -21.5,21.5c-11.87412,0 -21.5,-9.62588 -21.5,-21.5c0,-11.87412 9.62588,-21.5 21.5,-21.5z" data-paper-data="{&quot;origPos&quot;:null}" fill="#f8f8f8" stroke="#000000" stroke-width="3" stroke-linecap="butt"/><g><path d="M241.91456,182.54642c-7.14683,-0.11787 -12.43173,-2.87884 -12.85891,-10.85302c-0.00354,-0.06598 4.0519,0.09233 4.0519,0.09233" data-paper-data="{&quot;origPos&quot;:null,&quot;index&quot;:null}" fill="none" stroke="#000000" stroke-width="2" stroke-linecap="round"/><path d="M246.89245,171.82756c0,0 4.05544,-0.1583 4.0519,-0.09231c-0.42719,7.97419 -5.71208,10.73515 -12.85891,10.85303" data-paper-data="{&quot;origPos&quot;:null}" fill="none" stroke="#000000" stroke-width="2" stroke-linecap="round"/><path d="M240.23231,181.79445l-0.00653,9.42078l-8.61723,0.0882c0,0 0.3351,-2.88256 4.66803,-4.18018c1.29835,-0.38883 1.01295,-5.20367 1.01295,-5.20367z" data-paper-data="{&quot;origPos&quot;:null}" fill="#000000" stroke="#191919" stroke-width="0" stroke-linecap="round"/><path d="M232.21302,168.69676h7.97156c0,0 0.07822,15.54156 0.00392,15.61105c-9.35649,-0.01794 -7.97547,-15.61105 -7.97547,-15.61105z" data-paper-data="{&quot;origPos&quot;:null}" fill="#000000" stroke="#191919" stroke-width="0" stroke-linecap="butt"/><path d="M239.90829,184.26595c0.00782,0.04008 -0.03357,-15.56938 -0.03357,-15.56938l8.00904,0.023c0,0 1.38102,15.52844 -7.97547,15.54638z" data-paper-data="{&quot;origPos&quot;:null,&quot;index&quot;:null}" fill="#000000" stroke="#191919" stroke-width="0" stroke-linecap="butt"/><path d="M242.84508,181.8777c0,0 -0.2854,4.81484 1.01295,5.20367c4.33293,1.29762 4.66803,4.1802 4.66803,4.1802l-8.6078,-0.04121l0.00989,-9.46778z" data-paper-data="{&quot;origPos&quot;:null,&quot;index&quot;:null}" fill="#000000" stroke="#191919" stroke-width="0" stroke-linecap="round"/></g></g></g></svg>