<svg version="1.1" xmlns="http://www.w3.org/2000/svg" xmlns:xlink="http://www.w3.org/1999/xlink" width="121.33333" height="121.33333" viewBox="0,0,121.33333,121.33333"><g transform="translate(-179.33333,-119.33333)"><g data-paper-data="{&quot;isPaintingLayer&quot;:true}" fill-rule="nonzero" stroke-linecap="butt" stroke-linejoin="miter" stroke-miterlimit="10" stroke-dasharray="" stroke-dashoffset="0" style="mix-blend-mode: normal"><path d="M263.74235,179c0,13.51047 -11.18947,24.46286 -24.99235,24.46286c-13.8029,0 -24.99235,-10.95239 -24.99235,-24.46286c0,-13.51047 11.18945,-24.46286 24.99235,-24.46286c13.8029,0 24.99235,10.95239 24.99235,24.46286z" fill="#23b3d9" stroke="#000000" stroke-width="3"/><path d="M234.51973,168.18875c0,2.46837 -1.91816,4.67809 -3.88724,5.45521c-1.42443,0.56217 -1.99209,-0.61418 -3.49283,-0.61418c-2.29841,0 -3.69716,4.78113 -4.56259,3.86347c-1.3611,-1.44324 -0.30078,-2.65959 -0.33252,-4.8285c-0.0172,-1.17491 -0.56189,-2.34571 -0.56189,-3.5208c0,-3.23688 2.33904,-5.86088 5.22439,-5.86088c2.88535,0 7.61269,2.2688 7.61269,5.50568z" fill="#23d948" stroke="none" stroke-width="0"/><path d="M227.72112,183.47346c-4.55108,3.40953 -2.63758,7.61269 -5.52293,7.61269c-2.88535,0 -1.93698,-6.04638 -3.13463,-12.09074c0,-3.05023 1.74197,-1.64195 4.62732,-1.64195c2.88535,0 4.03025,3.06977 4.03025,6.12z" fill="#23d948" stroke="none" stroke-width="0"/><path d="M259.2775,170.37937c0,2.21527 0.00683,6.61257 -1.30135,8.40033c-1.08574,1.48377 -2.85151,-1.08579 -3.74925,0.51872c-1.45812,2.60608 0.35695,2.60107 -2.37366,3.81c-1.48854,0.65903 -1.34613,-3.9135 -2.91661,-3.48496c-0.53819,0.14686 -1.09202,1.66019 -1.62442,1.49356c-1.44352,-0.4518 -1.74672,-0.4279 -2.89639,-1.41082c-0.44152,-0.37748 -0.65233,-1.78068 -1.23322,-1.78068c-0.74019,0 -0.90344,1.26265 -1.61524,1.46568c-0.47812,0.13637 -0.57136,-0.79787 -1.0669,-0.75738c-0.4117,0.03364 0.29707,1.85363 -0.03799,1.61205c-0.15969,-0.11513 -0.2327,-0.17706 -0.42847,-0.15625c-0.18567,0.01974 -0.78602,0.49001 -0.83527,0.30991c-0.11121,-0.40668 0.32737,-0.456 0.38837,-0.87317c0.05892,-0.40293 -0.12655,-1.26945 -0.45874,-1.03392c-1.45108,1.02885 -1.34289,3.01895 -2.78661,1.97981c-0.87877,-0.63252 -0.44661,-0.90179 0.11932,-1.82485c0.30398,-0.4958 1.01456,0.32282 1.34372,-0.15663c0.34849,-0.50759 0.38416,-0.91634 0.05811,-1.43863c-0.23524,-0.37681 -0.74276,-0.06845 -0.74276,-0.51267c0,-0.68006 1.02303,-0.45824 1.28337,-1.08649c0.37413,-0.90283 0.76911,-0.31284 0.86501,-1.2854c0.12013,-1.21835 1.59428,-0.20249 2.20768,-1.26199c0.50934,-0.87975 -0.64366,-4.52178 0.3729,-4.52178c0,0 0.83867,1.59855 1.29457,1.48113c1.08921,-0.28054 0.63738,-1.10853 1.5897,-1.70701c2.85696,-1.79542 6.79806,-3.86603 10.46163,-2.23628c2.00212,0.89064 4.0825,1.5588 4.0825,4.45772z" fill="#1fc240" stroke="none" stroke-width="0"/><path d="M247.02744,186.55134c0.05343,2.92354 -2.1913,7.74023 -4.64891,10.0573c-1.79746,1.69467 -1.93436,-5.9 -3.93937,-7.34315c-1.18662,-0.8541 -4.1795,-2.60468 -4.1795,-4.06672c0,-2.92403 3.80132,-4.39334 6.90257,-4.39334c3.10124,0 5.73649,-1.29737 5.86522,5.74591z" fill="#75d989" stroke="none" stroke-width="0"/><path d="M258.47648,183.81798c-1.10401,-0.79464 -1.61301,0.33124 -1.61301,-1.02902c0,-2.72047 -2.92081,-2.04977 -0.04527,-1.81196c1.44817,0.11977 3.52371,4.18367 1.65828,2.84098z" fill="#23d948" stroke="none" stroke-width="0"/><path d="M250.27789,159.8794c0,2.74798 -0.7869,3.45145 -4.56113,3.45145c-3.00647,0 -5.95733,3.77038 -8.39745,2.41412c-1.44412,-0.80267 -1.16996,-5.71421 -1.16996,-7.08822c0,-2.71698 2.74924,-2.66481 2.85432,-2.66481c3.77423,0 11.27421,1.13948 11.27421,3.88746z" fill="#d9d9d9" stroke="none" stroke-width="0"/><path d="M246.13161,200.51306c-1.46667,1.45153 -8.46383,1.64498 -10.91444,1.11164c-0.10966,-0.02387 -4.21753,-0.74071 -6.41741,-1.96345c-1.21826,-0.67713 5.74636,-0.35384 5.74636,-1.51295c0,-2.29204 3.98593,0.35196 4.07457,0.35196c3.18394,0 9.15862,0.38211 7.51093,2.01279z" fill="#d9d9d9" stroke="none" stroke-width="0"/><path d="M237.25262,174.46358c-1.13111,-0.68795 -1.5843,0.63306 -1.5843,-0.54456c0,-2.3552 1.85702,-2.92886 0.84156,-1.04923c1.48372,0.10368 2.65397,2.7562 0.74274,1.59379z" fill="#1fc240" stroke="none" stroke-width="0"/><path d="M179.33334,240.66667v-121.33333h121.33333v121.33333z" fill="none" stroke="none" stroke-width="0"/></g></g></svg>