<svg version="1.1" xmlns="http://www.w3.org/2000/svg" xmlns:xlink="http://www.w3.org/1999/xlink" width="185.20525" height="304.44352" viewBox="0,0,185.20525,304.44352"><g transform="translate(-147.68339,-27.77811)"><g data-paper-data="{&quot;isPaintingLayer&quot;:true}" fill-rule="nonzero" stroke-linejoin="miter" stroke-miterlimit="10" stroke-dasharray="" stroke-dashoffset="0" style="mix-blend-mode: normal"><path d="M151.43339,69.41685c0.38825,-28.10779 13.11772,-37.88874 31.35145,-37.88874c45.94196,0 84.19667,0 117.72036,0c17.92288,0 28.63344,11.45754 28.63344,38.16544c0,71.38976 0,175.91746 0,240.46154c0,12.95952 -4.66571,18.31682 -20.21619,18.31682c0,0 -105.10841,0.43542 -140.55423,0c-9.53698,-0.11716 -17.03843,-4.87435 -17.12692,-21.81343c0,0 -0.9712,-153.7847 0.19187,-237.98198z" fill="#ffffff" stroke="#000000" stroke-width="7.5" stroke-linecap="butt"/><text transform="translate(183.09382,177.00004) scale(0.5,0.5)" font-size="40" xml:space="preserve" fill="#000000" fill-rule="nonzero" stroke="#000000" stroke-width="1" stroke-linecap="butt" stroke-linejoin="miter" stroke-miterlimit="10" stroke-dasharray="" stroke-dashoffset="0" font-family="Sans Serif" font-weight="normal" text-anchor="start" style="mix-blend-mode: normal"><tspan x="0" dy="0">Unlocked !</tspan></text><text transform="translate(200.59382,265.9886) scale(0.36206,0.36206)" font-size="40" xml:space="preserve" fill="#000000" fill-rule="nonzero" stroke="#000000" stroke-width="2" stroke-linecap="butt" stroke-linejoin="miter" stroke-miterlimit="10" stroke-dasharray="" stroke-dashoffset="0" font-family="Sans Serif" font-weight="normal" text-anchor="start" style="mix-blend-mode: normal"><tspan x="0" dy="0">Best :</tspan></text><g stroke="#000000"><path d="M288.99235,99c0,26.48449 -21.93465,47.95439 -48.99235,47.95439c-27.05774,0 -48.99235,-21.4699 -48.99235,-47.95439c0,-26.48449 21.93461,-47.95439 48.99235,-47.95439c27.05774,0 48.99235,21.4699 48.99235,47.95439z" fill="#c423d9" stroke-width="5" stroke-linecap="butt"/><path d="M209.69115,133.25313c25.9873,-13.38238 20.23178,-36.45143 46.42415,-38.99058c18.30066,-1.77411 28.93278,24.04377 28.93278,24.04377" fill="none" stroke-width="5" stroke-linecap="round"/><path d="M192.87595,104.60504c0,0 22.91387,-19.12814 61.77394,-20.8538c19.29268,-0.85677 31.02094,3.41585 31.02094,3.41585" fill="none" stroke-width="3.5" stroke-linecap="round"/><path d="M238.33924,51.66841c0,0 13.68491,11.61033 16.5814,37.41262c3.9211,34.92932 -11.59914,57.25062 -11.59914,57.25062" fill="none" stroke-width="3.5" stroke-linecap="round"/><path d="M266.36454,59.76456c0,0 4.76249,14.30399 -13.11609,14.01728c-12.96168,-0.20787 -42.31173,-10.84121 -42.31173,-10.84121" fill="none" stroke-width="5" stroke-linecap="round"/></g><text transform="translate(162.31454,220.75091) scale(0.32896,0.32896)" font-size="40" xml:space="preserve" fill="#000000" fill-rule="nonzero" stroke="none" stroke-width="1" stroke-linecap="butt" stroke-linejoin="miter" stroke-miterlimit="10" stroke-dasharray="" stroke-dashoffset="0" font-family="Sans Serif" font-weight="normal" text-anchor="start" style="mix-blend-mode: normal"><tspan x="0" dy="0">    Tap your screen 50x</tspan><tspan x="0" dy="48px">     or more in a game</tspan></text></g></g></svg>