<svg version="1.1" xmlns="http://www.w3.org/2000/svg" xmlns:xlink="http://www.w3.org/1999/xlink" width="46" height="46" viewBox="0,0,46,46"><g transform="translate(-217,-157)"><g data-paper-data="{&quot;isPaintingLayer&quot;:true}" fill-rule="nonzero" stroke-linejoin="miter" stroke-miterlimit="10" stroke-dasharray="" stroke-dashoffset="0" style="mix-blend-mode: normal"><path d="M240,158.5c11.87412,0 21.5,9.62588 21.5,21.5c0,11.87412 -9.62588,21.5 -21.5,21.5c-11.87412,0 -21.5,-9.62588 -21.5,-21.5c0,-11.87412 9.62588,-21.5 21.5,-21.5z" data-paper-data="{&quot;origPos&quot;:null}" fill="#f8f8f8" stroke="#000000" stroke-width="3" stroke-linecap="butt"/><path d="M257.04109,169.69808c7.53155,11.14424 0.60087,29.90819 -16.91724,30.35818c-17.99884,-0.65458 -24.6508,-19.00147 -16.98939,-30.79001" fill="#ffd870" stroke="none" stroke-width="0" stroke-linecap="round"/><g data-paper-data="{&quot;origPos&quot;:null}" stroke="#f8f8f8"><path d="M252.20231,180c0,6.59637 -5.46317,11.94379 -12.20231,11.94379c-6.73916,0 -12.20231,-5.34742 -12.20231,-11.94379c0,-6.59637 5.46316,-11.94379 12.20231,-11.94379c6.73916,0 12.20231,5.34742 12.20231,11.94379z" data-paper-data="{&quot;origPos&quot;:null}" fill="#000000" stroke-width="1.5" stroke-linecap="butt"/><path d="M232.45111,188.53128c6.47254,-3.33309 5.03904,-9.0788 11.56266,-9.71121c4.55806,-0.44187 7.20616,5.98848 7.20616,5.98848" data-paper-data="{&quot;origPos&quot;:null}" fill="none" stroke-width="1.5" stroke-linecap="round"/><path d="M228.26302,181.39603c0,0 5.70706,-4.76416 15.38577,-5.19396c4.80514,-0.21339 7.72625,0.85077 7.72625,0.85077" data-paper-data="{&quot;origPos&quot;:null}" fill="none" stroke-width="1" stroke-linecap="round"/><path d="M239.58636,168.21133c0,0 3.40844,2.89173 4.12986,9.3182c0.97661,8.69969 -2.88895,14.25916 -2.88895,14.25916" data-paper-data="{&quot;origPos&quot;:null}" fill="none" stroke-width="1" stroke-linecap="round"/><path d="M246.5665,170.2278c0,0 1.18617,3.56263 -3.26677,3.49122c-3.22831,-0.05177 -10.5384,-2.70017 -10.5384,-2.70017" data-paper-data="{&quot;origPos&quot;:null}" fill="none" stroke-width="1.5" stroke-linecap="round"/></g></g></g></svg>