<svg version="1.1" xmlns="http://www.w3.org/2000/svg" xmlns:xlink="http://www.w3.org/1999/xlink" width="185.20525" height="304.44352" viewBox="0,0,185.20525,304.44352"><defs><linearGradient x1="205.71854" y1="95.73486" x2="274.1298" y2="95.73486" gradientUnits="userSpaceOnUse" id="color-1"><stop offset="0" stop-color="#00a2ff"/><stop offset="1" stop-color="#a6ff3a"/></linearGradient></defs><g transform="translate(-147.68339,-27.77811)"><g data-paper-data="{&quot;isPaintingLayer&quot;:true}" fill-rule="nonzero" stroke-linejoin="miter" stroke-miterlimit="10" stroke-dasharray="" stroke-dashoffset="0" style="mix-blend-mode: normal"><path d="M151.43339,69.41685c0.38825,-28.10779 13.11772,-37.88874 31.35145,-37.88874c45.94196,0 84.19667,0 117.72036,0c17.92288,0 28.63344,11.45754 28.63344,38.16544c0,71.38976 0,175.91746 0,240.46154c0,12.95952 -4.66571,18.31682 -20.21619,18.31682c0,0 -105.10841,0.43542 -140.55423,0c-9.53698,-0.11716 -17.03843,-4.87435 -17.12692,-21.81343c0,0 -0.9712,-153.7847 0.19187,-237.98198z" fill="#ffffff" stroke="#000000" stroke-width="7.5" stroke-linecap="butt"/><text transform="translate(173.0938,170.00002) scale(0.5,0.5)" font-size="40" xml:space="preserve" fill="#000000" fill-rule="nonzero" stroke="#000000" stroke-width="1" stroke-linecap="butt" stroke-linejoin="miter" stroke-miterlimit="10" stroke-dasharray="" stroke-dashoffset="0" font-family="Sans Serif" font-weight="normal" text-anchor="start" style="mix-blend-mode: normal"><tspan x="0" dy="0">Unlock with...</tspan></text><text transform="translate(179.31468,224.75096) scale(0.32896,0.32896)" font-size="40" xml:space="preserve" fill="#000000" fill-rule="nonzero" stroke="none" stroke-width="1" stroke-linecap="butt" stroke-linejoin="miter" stroke-miterlimit="10" stroke-dasharray="" stroke-dashoffset="0" font-family="Sans Serif" font-weight="normal" text-anchor="start" style="mix-blend-mode: normal"><tspan x="0" dy="0">Fave this project :D</tspan></text><g><path d="M256.56555,79.10344c18.03579,9.12491 28.28327,24.95568 14.54786,44.30503c-22.5665,26.39754 -59.96021,4.3023 -51.72948,-22.31861c0.09708,-0.25638 -4.53826,0.27395 -7.3486,-6.25389c-3.34755,-6.41341 1.29462,-10.97908 1.29462,-10.97908c0,0 -7.85337,-3.40287 -10.45088,-14.78899c-1.60482,-7.0346 2.9661,-14.68915 2.9661,-14.68915c0,0 31.79506,15.37162 50.72038,24.72469z" data-paper-data="{&quot;origPos&quot;:null,&quot;origRot&quot;:0}" fill="none" stroke="#000000" stroke-width="7.5" stroke-linecap="round"/><path d="M273.97004,103.60548c1.60743,14.13598 -9.09753,26.96102 -23.91033,28.64544c-14.81279,1.68442 -28.12406,-8.40955 -29.73151,-22.54552c-0.49673,-4.36812 1.37387,-10.20894 1.37387,-10.20894c0,0 -5.81721,0.05901 -7.25317,-8.75992c-0.77661,-4.76941 3.93843,-8.1182 3.93843,-8.1182c0,0 -18.25763,-5.23772 -10.93713,-23.58315l44.18543,21.55721c0,0 20.64293,8.13881 22.33439,23.01304z" data-paper-data="{&quot;origPos&quot;:null}" fill="url(#color-1)" stroke="none" stroke-width="0" stroke-linecap="butt"/></g><text transform="translate(187.16752,238.93729) scale(0.2119,0.2119)" font-size="40" xml:space="preserve" fill="#000000" fill-rule="nonzero" stroke="#000000" stroke-width="0" stroke-linecap="butt" stroke-linejoin="miter" stroke-miterlimit="10" stroke-dasharray="" stroke-dashoffset="0" font-family="Sans Serif" font-weight="normal" text-anchor="start" style="mix-blend-mode: normal"><tspan x="0" dy="0">(if you think it's deserved)</tspan></text><g stroke="none" stroke-linecap="butt"><path d="M239.90492,249.8733l2.87805,5.83157c0.12166,0.24656 0.35687,0.41746 0.62895,0.457l6.43552,0.93514c0.31465,0.04572 0.57606,0.26612 0.67432,0.56851c0.09825,0.3024 0.01631,0.63435 -0.21138,0.85629l-4.65678,4.53924c-0.19687,0.1919 -0.28671,0.4684 -0.24024,0.73937l1.09932,6.40952c0.05374,0.31338 -0.07508,0.63009 -0.33231,0.81698c-0.25723,0.18689 -0.59825,0.21154 -0.87969,0.0636l-5.7561,-3.02617c-0.24335,-0.12793 -0.53407,-0.12793 -0.77742,0l-5.75612,3.02612c-0.28144,0.14795 -0.62246,0.12329 -0.87969,-0.0636c-0.25723,-0.18689 -0.38605,-0.5036 -0.33231,-0.81698l1.09932,-6.40952c0.04648,-0.27097 -0.04334,-0.54746 -0.2402,-0.73937l-4.65683,-4.53924c-0.22769,-0.22195 -0.30962,-0.55391 -0.21136,-0.85631c0.09827,-0.3024 0.35969,-0.52279 0.67436,-0.56849l6.43552,-0.93514c0.27207,-0.03953 0.50727,-0.21041 0.62894,-0.45695l2.878,-5.83157c0.14072,-0.28513 0.4311,-0.46564 0.74907,-0.46564c0.31796,0 0.60835,0.18051 0.74907,0.46564z" fill="#f9ee30" stroke-width="1"/><path d="M227.25585,272.09796v-23.6h23.8v23.6z" fill="none" stroke-width="0"/></g></g></g></svg>