<svg version="1.1" xmlns="http://www.w3.org/2000/svg" xmlns:xlink="http://www.w3.org/1999/xlink" width="185.20525" height="304.44352" viewBox="0,0,185.20525,304.44352"><g transform="translate(-147.68339,-27.77811)"><g data-paper-data="{&quot;isPaintingLayer&quot;:true}" fill-rule="nonzero" stroke-linejoin="miter" stroke-miterlimit="10" stroke-dasharray="" stroke-dashoffset="0" style="mix-blend-mode: normal"><path d="M151.43339,69.41685c0.38825,-28.10779 13.11772,-37.88874 31.35145,-37.88874c45.94196,0 84.19667,0 117.72036,0c17.92288,0 28.63344,11.45754 28.63344,38.16544c0,71.38976 0,175.91746 0,240.46154c0,12.95952 -4.66571,18.31682 -20.21619,18.31682c0,0 -105.10841,0.43542 -140.55423,0c-9.53698,-0.11716 -17.03843,-4.87435 -17.12692,-21.81343c0,0 -0.9712,-153.7847 0.19187,-237.98198z" fill="#ffffff" stroke="#000000" stroke-width="7.5" stroke-linecap="butt"/><text transform="translate(173.09381,177.00003) scale(0.5,0.5)" font-size="40" xml:space="preserve" fill="#000000" fill-rule="nonzero" stroke="#000000" stroke-width="1" stroke-linecap="butt" stroke-linejoin="miter" stroke-miterlimit="10" stroke-dasharray="" stroke-dashoffset="0" font-family="Sans Serif" font-weight="normal" text-anchor="start" style="mix-blend-mode: normal"><tspan x="0" dy="0">Unlock with...</tspan></text><text transform="translate(200.59381,265.9886) scale(0.36206,0.36206)" font-size="40" xml:space="preserve" fill="#000000" fill-rule="nonzero" stroke="#000000" stroke-width="2" stroke-linecap="butt" stroke-linejoin="miter" stroke-miterlimit="10" stroke-dasharray="" stroke-dashoffset="0" font-family="Sans Serif" font-weight="normal" text-anchor="start" style="mix-blend-mode: normal"><tspan x="0" dy="0">Best :</tspan></text><g stroke="#000000"><path d="M286.89279,98.00001c0,25.89008 -21.44235,46.87812 -47.89278,46.87812c-26.45046,0 -47.89278,-20.98804 -47.89278,-46.87812c0,-25.89008 21.44231,-46.87812 47.89278,-46.87812c26.45046,0 47.89278,20.98804 47.89278,46.87812z" fill="#ffffff" stroke-width="5" stroke-linecap="butt"/><path d="M209.37145,131.48438c25.40405,-13.08203 19.7777,-35.63332 45.38222,-38.11548c17.88992,-1.73429 28.28342,23.50414 28.28342,23.50414" fill="none" stroke-width="5" stroke-linecap="round"/><path d="M192.93361,103.47926c0,0 22.3996,-18.69883 60.3875,-20.38576c18.85968,-0.83754 30.32472,3.33919 30.32472,3.33919" fill="none" stroke-width="3.5" stroke-linecap="round"/><path d="M237.37656,51.73072c0,0 13.37777,11.34975 16.20925,36.57294c3.83309,34.14537 -11.33881,55.9657 -11.33881,55.9657" fill="none" stroke-width="3.5" stroke-linecap="round"/><path d="M264.77281,59.64516c0,0 4.65561,13.98295 -12.82172,13.70268c-12.67077,-0.2032 -41.36209,-10.59789 -41.36209,-10.59789" fill="none" stroke-width="5" stroke-linecap="round"/></g><text transform="translate(167.31456,226.75093) scale(0.32896,0.32896)" font-size="40" xml:space="preserve" fill="#000000" fill-rule="nonzero" stroke="none" stroke-width="1" stroke-linecap="butt" stroke-linejoin="miter" stroke-miterlimit="10" stroke-dasharray="" stroke-dashoffset="0" font-family="Sans Serif" font-weight="normal" text-anchor="start" style="mix-blend-mode: normal"><tspan x="0" dy="0"> Get over a score of 50 </tspan></text></g></g></svg>