<svg version="1.1" xmlns="http://www.w3.org/2000/svg" xmlns:xlink="http://www.w3.org/1999/xlink" width="32.42099" height="31.85714" viewBox="0,0,32.42099,31.85714"><g transform="translate(-223.7895,-164.07143)"><g data-paper-data="{&quot;isPaintingLayer&quot;:true}" fill-rule="nonzero" stroke-linecap="butt" stroke-linejoin="miter" stroke-miterlimit="10" stroke-dasharray="" stroke-dashoffset="0" style="mix-blend-mode: normal"><path d="M251.53996,180c0,6.23833 -5.16662,11.29549 -11.53996,11.29549c-6.37335,0 -11.53996,-5.05715 -11.53996,-11.29549c0,-6.23833 5.16661,-11.29549 11.53996,-11.29549c6.37335,0 11.53996,5.05715 11.53996,11.29549z" fill="#23b3d9" stroke="#000000" stroke-width="1.5"/><path d="M238.04671,175.00801c0,1.13975 -0.88569,2.16006 -1.7949,2.51888c-0.65772,0.25957 -0.91984,-0.28359 -1.61278,-0.28359c-1.06127,0 -1.70713,2.20764 -2.10674,1.78391c-0.62848,-0.6664 -0.13889,-1.22804 -0.15355,-2.22951c-0.00794,-0.5425 -0.25944,-1.08311 -0.25944,-1.62569c0,-1.4946 1.08004,-2.7062 2.41231,-2.7062c1.33228,0 3.51508,1.04759 3.51508,2.54219z" fill="#23d948" stroke="none" stroke-width="0"/><path d="M234.90752,182.06557c-2.10141,1.57432 -1.21788,3.51508 -2.55016,3.51508c-1.33228,0 -0.89438,-2.79186 -1.44738,-5.58278c0,-1.40841 0.80434,-0.75815 2.13662,-0.75815c1.33228,0 1.86093,1.41743 1.86093,2.82585z" fill="#23d948" stroke="none" stroke-width="0"/><path d="M249.47836,176.0195c0,1.02288 0.00316,3.05329 -0.60088,3.87877c-0.50133,0.68511 -1.31665,-0.50136 -1.73118,0.23951c-0.67328,1.20333 0.16481,1.20102 -1.09602,1.75923c-0.68732,0.3043 -0.62156,-1.80702 -1.34672,-1.60915c-0.24851,0.06781 -0.50423,0.76658 -0.75006,0.68963c-0.66653,-0.20861 -0.80653,-0.19757 -1.33738,-0.65144c-0.20387,-0.17429 -0.3012,-0.82221 -0.56943,-0.82221c-0.34177,0 -0.41716,0.58301 -0.74582,0.67676c-0.22076,0.06298 -0.26382,-0.36841 -0.49263,-0.34971c-0.19009,0.01553 0.13717,0.85589 -0.01754,0.74435c-0.07374,-0.05316 -0.10745,-0.08175 -0.19785,-0.07215c-0.08573,0.00912 -0.36293,0.22626 -0.38568,0.1431c-0.05135,-0.18778 0.15116,-0.21055 0.17933,-0.40318c0.0272,-0.18604 -0.05843,-0.58615 -0.21182,-0.4774c-0.67002,0.47506 -0.62006,1.39397 -1.28669,0.91416c-0.40576,-0.29206 -0.20622,-0.4164 0.05509,-0.84261c0.14036,-0.22894 0.46847,0.14905 0.62044,-0.07232c0.16091,-0.23437 0.17739,-0.42311 0.02683,-0.66427c-0.10862,-0.17399 -0.34297,-0.03161 -0.34297,-0.23672c0,-0.31401 0.47237,-0.21159 0.59258,-0.50167c0.17275,-0.41687 0.35513,-0.14445 0.39941,-0.59353c0.05547,-0.56255 0.73614,-0.09349 1.01938,-0.58271c0.23518,-0.40621 -0.2972,-2.08788 0.17218,-2.08788c0,0 0.38725,0.73811 0.59776,0.6839c0.50294,-0.12953 0.2943,-0.51185 0.73402,-0.78819c1.31918,-0.82903 3.13894,-1.7851 4.83056,-1.03258c0.92446,0.41125 1.88506,0.71976 1.88506,2.05832z" fill="#1fc240" stroke="none" stroke-width="0"/><path d="M243.82202,183.48676c0.02467,1.34991 -1.01181,3.57398 -2.14659,4.64385c-0.82995,0.78249 -0.89317,-2.72427 -1.81896,-3.39062c-0.54791,-0.39437 -1.92984,-1.20268 -1.92984,-1.87777c0,-1.35015 1.75522,-2.02858 3.18718,-2.02858c1.43197,0 2.64876,-0.59904 2.7082,2.65312z" fill="#75d989" stroke="none" stroke-width="0"/><path d="M249.10851,182.22465c-0.50977,-0.36692 -0.74479,0.15294 -0.74479,-0.47514c0,-1.25615 -1.34865,-0.94645 -0.0209,-0.83666c0.66867,0.05531 1.62704,1.93177 0.7657,1.3118z" fill="#23d948" stroke="none" stroke-width="0"/><path d="M245.32289,171.17125c0,1.26885 -0.36334,1.59368 -2.10606,1.59368c-1.38821,0 -2.75073,1.74093 -3.87744,1.1147c-0.66682,-0.37062 -0.54021,-2.63848 -0.54021,-3.27292c0,-1.25454 1.26944,-1.23045 1.31796,-1.23045c1.74271,0 5.20575,0.52615 5.20575,1.79499z" fill="#d9d9d9" stroke="none" stroke-width="0"/><path d="M243.40839,189.93344c-0.67722,0.67022 -3.90809,0.75956 -5.03963,0.51329c-0.05063,-0.01102 -1.9474,-0.34201 -2.96318,-0.9066c-0.56251,-0.31265 2.65333,-0.16339 2.65333,-0.69859c0,-1.05832 1.84047,0.16251 1.8814,0.16251c1.47015,0 4.2289,0.17643 3.4681,0.92939z" fill="#d9d9d9" stroke="none" stroke-width="0"/><path d="M239.30861,177.90536c-0.52228,-0.31766 -0.73153,0.29231 -0.73153,-0.25144c0,-1.08748 0.85745,-1.35238 0.38857,-0.48447c0.68509,0.04788 1.22544,1.27265 0.34296,0.73592z" fill="#1fc240" stroke="none" stroke-width="0"/><path d="M223.78951,195.92857v-31.85714h32.42099v31.85714z" fill="none" stroke="none" stroke-width="0"/></g></g></svg>