<svg version="1.1" xmlns="http://www.w3.org/2000/svg" xmlns:xlink="http://www.w3.org/1999/xlink" width="185.20525" height="304.44352" viewBox="0,0,185.20525,304.44352"><g transform="translate(-147.68339,-27.77811)"><g data-paper-data="{&quot;isPaintingLayer&quot;:true}" fill-rule="nonzero" stroke-linejoin="miter" stroke-miterlimit="10" stroke-dasharray="" stroke-dashoffset="0" style="mix-blend-mode: normal"><path d="M151.43339,69.41685c0.38825,-28.10779 13.11772,-37.88874 31.35145,-37.88874c45.94196,0 84.19667,0 117.72036,0c17.92288,0 28.63344,11.45754 28.63344,38.16544c0,71.38976 0,175.91746 0,240.46154c0,12.95952 -4.66571,18.31682 -20.21619,18.31682c0,0 -105.10841,0.43542 -140.55423,0c-9.53698,-0.11716 -17.03843,-4.87435 -17.12692,-21.81343c0,0 -0.9712,-153.7847 0.19187,-237.98198z" fill="#ffffff" stroke="#000000" stroke-width="7.5" stroke-linecap="butt"/><text transform="translate(183.09382,177.00004) scale(0.5,0.5)" font-size="40" xml:space="preserve" fill="#000000" fill-rule="nonzero" stroke="#000000" stroke-width="1" stroke-linecap="butt" stroke-linejoin="miter" stroke-miterlimit="10" stroke-dasharray="" stroke-dashoffset="0" font-family="Sans Serif" font-weight="normal" text-anchor="start" style="mix-blend-mode: normal"><tspan x="0" dy="0">Unlocked !</tspan></text><text transform="translate(200.59382,265.9886) scale(0.36206,0.36206)" font-size="40" xml:space="preserve" fill="#000000" fill-rule="nonzero" stroke="#000000" stroke-width="2" stroke-linecap="butt" stroke-linejoin="miter" stroke-miterlimit="10" stroke-dasharray="" stroke-dashoffset="0" font-family="Sans Serif" font-weight="normal" text-anchor="start" style="mix-blend-mode: normal"><tspan x="0" dy="0">Best :</tspan></text><g stroke="#000000"><path d="M288.49235,98.00001c0,26.2142 -21.71079,47.46499 -48.49235,47.46499c-26.7816,0 -48.49235,-21.25079 -48.49235,-47.46499c0,-26.2142 21.71075,-47.46499 48.49235,-47.46499c26.7816,0 48.49235,21.25079 48.49235,47.46499z" fill="#6ad923" stroke-width="5" stroke-linecap="butt"/><path d="M210.0005,131.90357c25.72208,-13.2458 20.0253,-36.07942 45.95036,-38.59265c18.11389,-1.756 28.6375,23.79839 28.6375,23.79839" fill="none" stroke-width="5" stroke-linecap="round"/><path d="M193.35696,103.54787c0,0 22.68002,-18.93292 61.14349,-20.64097c19.09579,-0.84802 30.70435,3.38099 30.70435,3.38099" fill="none" stroke-width="3.5" stroke-linecap="round"/><path d="M238.35625,51.15148c0,0 13.54525,11.49184 16.41218,37.0308c3.88108,34.57284 -11.48076,56.66634 -11.48076,56.66634" fill="none" stroke-width="3.5" stroke-linecap="round"/><path d="M266.09549,59.16501c0,0 4.71389,14.15801 -12.98223,13.87422c-12.8294,-0.20575 -41.87991,-10.73057 -41.87991,-10.73057" fill="none" stroke-width="5" stroke-linecap="round"/></g><text transform="translate(162.31454,220.75091) scale(0.32896,0.32896)" font-size="40" xml:space="preserve" fill="#000000" fill-rule="nonzero" stroke="none" stroke-width="1" stroke-linecap="butt" stroke-linejoin="miter" stroke-miterlimit="10" stroke-dasharray="" stroke-dashoffset="0" font-family="Sans Serif" font-weight="normal" text-anchor="start" style="mix-blend-mode: normal"><tspan x="0" dy="0">   Mark over 5x in a row </tspan><tspan x="0" dy="48px">without making perfects</tspan></text></g></g></svg>