<svg version="1.1" xmlns="http://www.w3.org/2000/svg" xmlns:xlink="http://www.w3.org/1999/xlink" width="124" height="124" viewBox="0,0,124,124"><g transform="translate(-178,-118)"><g data-paper-data="{&quot;isPaintingLayer&quot;:true}" fill-rule="nonzero" stroke-linejoin="miter" stroke-miterlimit="10" stroke-dasharray="" stroke-dashoffset="0" style="mix-blend-mode: normal"><path d="M285.89278,176c0,25.89008 -21.44235,46.87812 -47.89278,46.87812c-26.45046,0 -47.89278,-20.98804 -47.89278,-46.87812c0,-25.89008 21.44231,-46.87812 47.89278,-46.87812c26.45046,0 47.89278,20.98804 47.89278,46.87812z" fill="#ffffff" stroke="#000000" stroke-width="5" stroke-linecap="butt"/><path d="M208.3714,209.48437c25.40405,-13.08203 19.7777,-35.63332 45.38222,-38.11548c17.88992,-1.73429 28.28342,23.50414 28.28342,23.50414" fill="none" stroke="#000000" stroke-width="5" stroke-linecap="round"/><path d="M191.93359,181.47925c0,0 22.3996,-18.69883 60.3875,-20.38576c18.85968,-0.83754 30.32472,3.33919 30.32472,3.33919" fill="none" stroke="#000000" stroke-width="3.5" stroke-linecap="round"/><path d="M236.37651,129.73071c0,0 13.37777,11.34975 16.20925,36.57294c3.83309,34.14537 -11.33881,55.9657 -11.33881,55.9657" fill="none" stroke="#000000" stroke-width="3.5" stroke-linecap="round"/><path d="M263.7728,137.64515c0,0 4.65561,13.98295 -12.82172,13.70268c-12.67077,-0.2032 -41.36209,-10.59789 -41.36209,-10.59789" fill="none" stroke="#000000" stroke-width="5" stroke-linecap="round"/><path d="M178,242v-124h124v124z" fill="none" stroke="none" stroke-width="0" stroke-linecap="butt"/></g></g></svg>