<svg version="1.1" xmlns="http://www.w3.org/2000/svg" xmlns:xlink="http://www.w3.org/1999/xlink" width="124" height="124" viewBox="0,0,124,124"><g transform="translate(-178,-118)"><g data-paper-data="{&quot;isPaintingLayer&quot;:true}" fill-rule="nonzero" stroke-linejoin="miter" stroke-miterlimit="10" stroke-dasharray="" stroke-dashoffset="0" style="mix-blend-mode: normal"><path d="M288.99235,180c0,26.48449 -21.93465,47.95439 -48.99235,47.95439c-27.05774,0 -48.99235,-21.4699 -48.99235,-47.95439c0,-26.48449 21.93461,-47.95439 48.99235,-47.95439c27.05774,0 48.99235,21.4699 48.99235,47.95439z" fill="#c423d9" stroke="#000000" stroke-width="5" stroke-linecap="butt"/><path d="M209.69115,214.25314c25.9873,-13.38238 20.23178,-36.45143 46.42415,-38.99058c18.30066,-1.77411 28.93278,24.04377 28.93278,24.04377" fill="none" stroke="#000000" stroke-width="5" stroke-linecap="round"/><path d="M192.87595,185.60505c0,0 22.91387,-19.12814 61.77394,-20.8538c19.29268,-0.85677 31.02094,3.41585 31.02094,3.41585" fill="none" stroke="#000000" stroke-width="3.5" stroke-linecap="round"/><path d="M238.33924,132.66841c0,0 13.68491,11.61033 16.5814,37.41262c3.9211,34.92932 -11.59914,57.25062 -11.59914,57.25062" fill="none" stroke="#000000" stroke-width="3.5" stroke-linecap="round"/><path d="M266.36452,140.76456c0,0 4.76249,14.30399 -13.11609,14.01728c-12.96168,-0.20787 -42.31173,-10.84121 -42.31173,-10.84121" fill="none" stroke="#000000" stroke-width="5" stroke-linecap="round"/><path d="M178,242v-124h124v124z" fill="none" stroke="none" stroke-width="0" stroke-linecap="butt"/></g></g></svg>