<svg version="1.1" xmlns="http://www.w3.org/2000/svg" xmlns:xlink="http://www.w3.org/1999/xlink" width="32.42099" height="31.85714" viewBox="0,0,32.42099,31.85714"><g transform="translate(-223.7895,-164.07143)"><g data-paper-data="{&quot;isPaintingLayer&quot;:true}" fill-rule="nonzero" stroke-linejoin="miter" stroke-miterlimit="10" stroke-dasharray="" stroke-dashoffset="0" style="mix-blend-mode: normal"><path d="M251.86898,180c0,6.41618 -5.31393,11.61752 -11.86898,11.61752c-6.55506,0 -11.86898,-5.20134 -11.86898,-11.61752c0,-6.41618 5.31392,-11.61752 11.86898,-11.61752c6.55506,0 11.86898,5.20134 11.86898,11.61752z" data-paper-data="{&quot;origPos&quot;:null}" fill="#6ad923" stroke="#000000" stroke-width="1.5" stroke-linecap="butt"/><path d="M232.65732,188.29823c6.29573,-3.24204 4.90139,-8.83079 11.2468,-9.44593c4.43355,-0.4298 7.00931,5.82489 7.00931,5.82489" data-paper-data="{&quot;origPos&quot;:null}" fill="none" stroke="#000000" stroke-width="1.5" stroke-linecap="round"/><path d="M228.58364,181.35789c0,0 5.55116,-4.63402 14.96547,-5.05208c4.67388,-0.20756 7.51519,0.82753 7.51519,0.82753" data-paper-data="{&quot;origPos&quot;:null}" fill="none" stroke="#000000" stroke-width="1" stroke-linecap="round"/><path d="M239.59766,168.53336c0,0 3.31533,2.81274 4.01704,9.06365c0.94993,8.46204 -2.81003,13.86964 -2.81003,13.86964" data-paper-data="{&quot;origPos&quot;:null}" fill="none" stroke="#000000" stroke-width="1" stroke-linecap="round"/><path d="M246.38712,170.49475c0,0 1.15377,3.46531 -3.17753,3.39585c-3.14012,-0.05036 -10.25052,-2.62641 -10.25052,-2.62641" data-paper-data="{&quot;origPos&quot;:null}" fill="none" stroke="#000000" stroke-width="1.5" stroke-linecap="round"/><path d="M223.78951,195.92857v-31.85714h32.42099v31.85714z" fill="none" stroke="none" stroke-width="0" stroke-linecap="butt"/></g></g></svg>