<svg version="1.1" xmlns="http://www.w3.org/2000/svg" xmlns:xlink="http://www.w3.org/1999/xlink" width="124" height="124" viewBox="0,0,124,124"><g transform="translate(-178,-118)"><g data-paper-data="{&quot;isPaintingLayer&quot;:true}" fill-rule="nonzero" stroke-linejoin="miter" stroke-miterlimit="10" stroke-dasharray="" stroke-dashoffset="0" style="mix-blend-mode: normal"><path d="M288.49235,180c0,26.2142 -21.71079,47.46499 -48.49235,47.46499c-26.7816,0 -48.49235,-21.25079 -48.49235,-47.46499c0,-26.2142 21.71075,-47.46499 48.49235,-47.46499c26.7816,0 48.49235,21.25079 48.49235,47.46499z" fill="#6ad923" stroke="#000000" stroke-width="5" stroke-linecap="butt"/><path d="M210.00049,213.90356c25.72208,-13.2458 20.0253,-36.07942 45.95036,-38.59265c18.11389,-1.756 28.6375,23.79839 28.6375,23.79839" fill="none" stroke="#000000" stroke-width="5" stroke-linecap="round"/><path d="M193.3569,185.54785c0,0 22.68002,-18.93292 61.14349,-20.64097c19.09579,-0.84802 30.70435,3.38099 30.70435,3.38099" fill="none" stroke="#000000" stroke-width="3.5" stroke-linecap="round"/><path d="M238.35621,133.15146c0,0 13.54525,11.49184 16.41218,37.0308c3.88108,34.57284 -11.48076,56.66634 -11.48076,56.66634" fill="none" stroke="#000000" stroke-width="3.5" stroke-linecap="round"/><path d="M266.09547,141.16499c0,0 4.71389,14.15801 -12.98223,13.87422c-12.8294,-0.20575 -41.87991,-10.73057 -41.87991,-10.73057" fill="none" stroke="#000000" stroke-width="5" stroke-linecap="round"/><path d="M178,242v-124h124v124z" fill="none" stroke="none" stroke-width="0" stroke-linecap="butt"/></g></g></svg>