<svg version="1.1" xmlns="http://www.w3.org/2000/svg" xmlns:xlink="http://www.w3.org/1999/xlink" width="124" height="124" viewBox="0,0,124,124"><g transform="translate(-178,-118)"><g data-paper-data="{&quot;isPaintingLayer&quot;:true}" fill-rule="nonzero" stroke-linejoin="miter" stroke-miterlimit="10" stroke-dasharray="" stroke-dashoffset="0" style="mix-blend-mode: normal"><path d="M243.60631,158.85436c12.4971,6.3227 19.59763,17.29193 10.08029,30.6992c-15.63645,18.29099 -41.54675,2.98109 -35.84364,-15.46468c0.06727,-0.17765 -3.14458,0.18982 -5.09189,-4.33335c-2.31954,-4.44389 0.89705,-7.60747 0.89705,-7.60747c0,0 -5.44164,-2.35787 -7.24148,-10.24737c-1.11198,-4.87431 2.05523,-10.1782 2.05523,-10.1782c0,0 22.03099,10.65108 35.14444,17.13187z" data-paper-data="{&quot;origRot&quot;:0}" fill="none" stroke="#000000" stroke-width="7" stroke-linecap="round"/><path d="M255.66597,175.69281c1.1138,9.7949 -6.30373,18.68143 -16.5676,19.84858c-10.26386,1.16714 -19.48731,-5.82702 -20.60112,-15.62191c-0.34419,-3.0267 0.95196,-7.07383 0.95196,-7.07383c0,0 -4.03077,0.04089 -5.02576,-6.06979c-0.53812,-3.30475 2.72896,-5.62514 2.72896,-5.62514c0,0 -12.65081,-3.62925 -7.5784,-16.34089l30.61633,14.9371c0,0 14.3036,5.63942 15.47562,15.94586z" data-paper-data="{&quot;origPos&quot;:null}" fill="#00c450" stroke="none" stroke-width="0" stroke-linecap="butt"/><path d="M178,242v-124h124v124z" fill="none" stroke="none" stroke-width="0" stroke-linecap="butt"/></g></g></svg>