<svg version="1.1" xmlns="http://www.w3.org/2000/svg" xmlns:xlink="http://www.w3.org/1999/xlink" width="28.625" height="28.625" viewBox="0,0,28.625,28.625"><g transform="translate(-226.1875,-166.1875)"><g data-paper-data="{&quot;isPaintingLayer&quot;:true}" fill-rule="nonzero" stroke-linejoin="miter" stroke-miterlimit="10" stroke-dasharray="" stroke-dashoffset="0" style="mix-blend-mode: normal"><path d="M240.16745,173.68601c3.4838,1.76257 5.4632,4.82044 2.81006,8.55797c-4.35895,5.09895 -11.58192,0.83104 -9.99207,-4.31106c0.01875,-0.04952 -0.87661,0.05292 -1.41946,-1.208c-0.64662,-1.23881 0.25007,-2.12072 0.25007,-2.12072c0,0 -1.51695,-0.6573 -2.0187,-2.85664c-0.30999,-1.3588 0.57293,-2.83736 0.57293,-2.83736c0,0 6.14155,2.96917 9.79717,4.77581z" data-paper-data="{&quot;origPos&quot;:null,&quot;origRot&quot;:0}" fill="none" stroke="#000000" stroke-width="1.5" stroke-linecap="round"/><path d="M243.52929,178.38004c0.31049,2.73051 -1.75728,5.20779 -4.61852,5.53315c-2.86124,0.32536 -5.43245,-1.62439 -5.74294,-4.35489c-0.09595,-0.84375 0.26538,-1.97196 0.26538,-1.97196c0,0 -1.12365,0.0114 -1.40102,-1.69207c-0.15001,-0.92126 0.76075,-1.56811 0.76075,-1.56811c0,0 -3.52664,-1.01172 -2.11262,-4.55532l8.53486,4.16399c0,0 3.98739,1.57209 4.31411,4.4452z" data-paper-data="{&quot;origPos&quot;:null}" fill="#ffffff" stroke="none" stroke-width="0" stroke-linecap="butt"/><path d="M226.1875,194.8125v-28.625h28.625v28.625z" fill="none" stroke="none" stroke-width="none" stroke-linecap="butt"/></g></g></svg>