<svg version="1.1" xmlns="http://www.w3.org/2000/svg" xmlns:xlink="http://www.w3.org/1999/xlink" width="185.20525" height="304.44352" viewBox="0,0,185.20525,304.44352"><g transform="translate(-147.68339,-27.77811)"><g data-paper-data="{&quot;isPaintingLayer&quot;:true}" fill-rule="nonzero" stroke-linejoin="miter" stroke-miterlimit="10" stroke-dasharray="" stroke-dashoffset="0" style="mix-blend-mode: normal"><path d="M151.43339,69.41685c0.38825,-28.10779 13.11772,-37.88874 31.35145,-37.88874c45.94196,0 84.19667,0 117.72036,0c17.92288,0 28.63344,11.45754 28.63344,38.16544c0,71.38976 0,175.91746 0,240.46154c0,12.95952 -4.66571,18.31682 -20.21619,18.31682c0,0 -105.10841,0.43542 -140.55423,0c-9.53698,-0.11716 -17.03843,-4.87435 -17.12692,-21.81343c0,0 -0.9712,-153.7847 0.19187,-237.98198z" fill="#ffffff" stroke="#000000" stroke-width="7.5" stroke-linecap="butt"/><text transform="translate(183.09389,177.00007) scale(0.5,0.5)" font-size="40" xml:space="preserve" fill="#000000" fill-rule="nonzero" stroke="#000000" stroke-width="1" stroke-linecap="butt" stroke-linejoin="miter" stroke-miterlimit="10" stroke-dasharray="" stroke-dashoffset="0" font-family="Sans Serif" font-weight="normal" text-anchor="start" style="mix-blend-mode: normal"><tspan x="0" dy="0">Unlocked !</tspan></text><text transform="translate(161.3146,225.75095) scale(0.32896,0.32896)" font-size="40" xml:space="preserve" fill="#000000" fill-rule="nonzero" stroke="none" stroke-width="1" stroke-linecap="butt" stroke-linejoin="miter" stroke-miterlimit="10" stroke-dasharray="" stroke-dashoffset="0" font-family="Sans Serif" font-weight="normal" text-anchor="start" style="mix-blend-mode: normal"><tspan x="0" dy="0">Score at least 10 perfects </tspan><tspan x="0" dy="48px">             in a row  </tspan></text><text transform="translate(200.59389,265.9886) scale(0.36206,0.36206)" font-size="40" xml:space="preserve" fill="#000000" fill-rule="nonzero" stroke="#000000" stroke-width="2" stroke-linecap="butt" stroke-linejoin="miter" stroke-miterlimit="10" stroke-dasharray="" stroke-dashoffset="0" font-family="Sans Serif" font-weight="normal" text-anchor="start" style="mix-blend-mode: normal"><tspan x="0" dy="0">Best :</tspan></text><g stroke="#000000"><path d="M288.51399,99.00001c0,26.2259 -21.72048,47.48617 -48.51399,47.48617c-26.79355,0 -48.51399,-21.26027 -48.51399,-47.48617c0,-26.2259 21.72044,-47.48617 48.51399,-47.48617c26.79355,0 48.51399,21.26027 48.51399,47.48617z" fill="#ffffff" stroke-width="5" stroke-linecap="butt"/><path d="M234.43155,88.65581l12.12732,0.40826l5.75263,9.59413l-5.97435,10.68597l-13.41553,-0.19877l-5.23308,-10.85091z" data-paper-data="{&quot;origRot&quot;:0}" fill="#000000" stroke-width="3" stroke-linecap="round"/><path d="M216.60087,119.02661l7.62231,7.1674l-2.28761,8.82212l-4.07986,4.23903l-14.88943,-14.37094l3.86094,-4.72496z" data-paper-data="{&quot;origRot&quot;:0}" fill="#000000" stroke-width="3" stroke-linecap="round"/><path d="M274.31514,119.19422l3.65329,4.47083l-14.08862,13.59803l-3.86041,-4.01104l-2.16458,-8.34762l7.21236,-6.78193z" data-paper-data="{&quot;origRot&quot;:0,&quot;index&quot;:null}" fill="#000000" stroke-width="3" stroke-linecap="round"/><path d="M263.74127,78.97753l-7.43945,-6.99545l2.23273,-8.61045l3.98197,-4.13734l14.53223,14.02618l-3.7683,4.6116z" data-paper-data="{&quot;origRot&quot;:0,&quot;index&quot;:null}" fill="#000000" stroke-width="3" stroke-linecap="round"/><path d="M206.61957,76.33256l-3.65329,-4.47083l14.08862,-13.59803l3.86041,4.01104l2.16458,8.34762l-7.21236,6.78193z" data-paper-data="{&quot;origRot&quot;:0,&quot;index&quot;:null}" fill="#000000" stroke-width="3" stroke-linecap="round"/></g></g></g></svg>