<svg version="1.1" xmlns="http://www.w3.org/2000/svg" xmlns:xlink="http://www.w3.org/1999/xlink" width="121.33333" height="121.33333" viewBox="0,0,121.33333,121.33333"><defs><linearGradient x1="239.95619" y1="159.21396" x2="239.95619" y2="201.5915" gradientUnits="userSpaceOnUse" id="color-1"><stop offset="0" stop-color="#ff0000"/><stop offset="1" stop-color="#008dff"/></linearGradient></defs><g transform="translate(-179.33333,-119.33333)"><g data-paper-data="{&quot;isPaintingLayer&quot;:true}" fill-rule="nonzero" stroke-linejoin="miter" stroke-miterlimit="10" stroke-dasharray="" stroke-dashoffset="0" style="mix-blend-mode: normal"><path d="M220.28048,156.04442c0,0 18.35707,8.87489 29.28371,14.27494c10.41307,5.26832 16.32951,14.40831 8.39929,25.57977c-13.0289,15.24077 -34.61838,2.48396 -29.86632,-12.88578c0.05605,-0.14802 -2.62019,0.15817 -4.24276,-3.61072c-1.93273,-3.70282 0.74746,-6.33884 0.74746,-6.33884c0,0 -4.53419,-1.96467 -6.03388,-8.53851c-0.92655,-4.06147 1.7125,-8.48087 1.7125,-8.48087z" data-paper-data="{&quot;origPos&quot;:null,&quot;origRot&quot;:0}" fill="none" stroke="#000000" stroke-width="6" stroke-linecap="round"/><path d="M259.61278,184.94688c0.92806,8.16149 -5.25251,15.5661 -13.80477,16.53861c-8.55225,0.97251 -16.23759,-4.8553 -17.16566,-13.01679c-0.28679,-2.52196 0.79321,-5.89419 0.79321,-5.89419c0,0 -3.3586,0.03407 -4.18766,-5.05759c-0.44838,-2.75365 2.27388,-4.68709 2.27388,-4.68709c0,0 -10.54115,-3.02403 -6.31462,-13.61587l25.51072,12.44618c0,0 11.91832,4.69899 12.89489,13.28671z" data-paper-data="{&quot;origPos&quot;:null}" fill="url(#color-1)" stroke="none" stroke-width="0" stroke-linecap="butt"/><path d="M179.33334,240.66667v-121.33333h121.33333v121.33333z" fill="none" stroke="none" stroke-width="0" stroke-linecap="butt"/></g></g></svg>