<svg version="1.1" xmlns="http://www.w3.org/2000/svg" xmlns:xlink="http://www.w3.org/1999/xlink" width="185.20525" height="304.44352" viewBox="0,0,185.20525,304.44352"><g transform="translate(-147.68339,-27.77811)"><g data-paper-data="{&quot;isPaintingLayer&quot;:true}" fill-rule="nonzero" stroke-linejoin="miter" stroke-miterlimit="10" stroke-dasharray="" stroke-dashoffset="0" style="mix-blend-mode: normal"><path d="M151.43339,69.41685c0.38825,-28.10779 13.11772,-37.88874 31.35145,-37.88874c45.94196,0 84.19667,0 117.72036,0c17.92288,0 28.63344,11.45754 28.63344,38.16544c0,71.38976 0,175.91746 0,240.46154c0,12.95952 -4.66571,18.31682 -20.21619,18.31682c0,0 -105.10841,0.43542 -140.55423,0c-9.53698,-0.11716 -17.03843,-4.87435 -17.12692,-21.81343c0,0 -0.9712,-153.7847 0.19187,-237.98198z" fill="#ffffff" stroke="#000000" stroke-width="7.5" stroke-linecap="butt"/><text transform="translate(173.0938,170.00002) scale(0.5,0.5)" font-size="40" xml:space="preserve" fill="#000000" fill-rule="nonzero" stroke="#000000" stroke-width="1" stroke-linecap="butt" stroke-linejoin="miter" stroke-miterlimit="10" stroke-dasharray="" stroke-dashoffset="0" font-family="Sans Serif" font-weight="normal" text-anchor="start" style="mix-blend-mode: normal"><tspan x="0" dy="0">Unlock with...</tspan></text><text transform="translate(200.5938,265.9886) scale(0.36206,0.36206)" font-size="40" xml:space="preserve" fill="#000000" fill-rule="nonzero" stroke="#000000" stroke-width="2" stroke-linecap="butt" stroke-linejoin="miter" stroke-miterlimit="10" stroke-dasharray="" stroke-dashoffset="0" font-family="Sans Serif" font-weight="normal" text-anchor="start" style="mix-blend-mode: normal"><tspan x="0" dy="0">Best :</tspan></text><g><path d="M257.36033,75.57071c18.35675,9.2873 28.78658,25.39978 14.80674,45.09346c-22.96808,26.86729 -61.02723,4.37887 -52.65003,-22.71578c0.09881,-0.26094 -4.61902,0.27883 -7.47938,-6.36518c-3.40713,-6.52754 1.31767,-11.17447 1.31767,-11.17447c0,0 -7.99312,-3.46343 -10.63686,-15.05216c-1.63338,-7.15979 3.01889,-14.95056 3.01889,-14.95056c0,0 32.36087,15.64518 51.62297,25.16469z" data-paper-data="{&quot;origRot&quot;:0}" fill="none" stroke="#000000" stroke-width="7.5" stroke-linecap="round"/><path d="M275.4063,100.40933c1.6517,14.52529 -9.34807,27.70354 -24.56883,29.43434c-15.22074,1.73081 -28.89861,-8.64115 -30.55033,-23.16644c-0.51041,-4.48842 1.4117,-10.4901 1.4117,-10.4901c0,0 -5.97742,0.06064 -7.45292,-9.00117c-0.798,-4.90077 4.04691,-8.34178 4.04691,-8.34178c0,0 -18.76046,-5.38198 -11.23835,-24.23265l45.40232,22.1509c0,0 21.21146,8.36296 22.94949,23.64683z" fill="#00c44e" stroke="none" stroke-width="0" stroke-linecap="butt"/></g><text transform="translate(162.31455,220.75091) scale(0.32896,0.32896)" font-size="40" xml:space="preserve" fill="#000000" fill-rule="nonzero" stroke="none" stroke-width="1" stroke-linecap="butt" stroke-linejoin="miter" stroke-miterlimit="10" stroke-dasharray="" stroke-dashoffset="0" font-family="Sans Serif" font-weight="normal" text-anchor="start" style="mix-blend-mode: normal"><tspan x="0" dy="0">  Mark over 20x in a row </tspan><tspan x="0" dy="48px">without making perfects</tspan></text></g></g></svg>