<svg version="1.1" xmlns="http://www.w3.org/2000/svg" xmlns:xlink="http://www.w3.org/1999/xlink" width="121.33333" height="121.33333" viewBox="0,0,121.33333,121.33333"><g transform="translate(-179.33333,-119.33333)"><g data-paper-data="{&quot;isPaintingLayer&quot;:true}" fill-rule="nonzero" stroke-linecap="butt" stroke-linejoin="miter" stroke-miterlimit="10" stroke-dasharray="" stroke-dashoffset="0" style="mix-blend-mode: normal"><path d="M197.04994,204.84742c-0.06812,-21.236 -0.39723,-33.18341 0.09286,-54.41387c0.18787,-8.13849 6.34668,-13.42281 15.16869,-13.42281c22.22792,0 40.73661,0 56.95626,0c8.67156,0 13.85362,5.31748 13.85362,17.0506c0,20.67054 0,34.27726 0,52.9657c0,12.7595 -5.48287,15.96227 -14.94195,15.96227c0,0 -38.89611,0 -56.23071,0c-9.76876,0 -14.86908,-8.88507 -14.89877,-18.14188z" data-paper-data="{&quot;origPos&quot;:null}" fill="#ffffff" stroke="#000000" stroke-width="5"/><g data-paper-data="{&quot;origRot&quot;:0,&quot;origPos&quot;:null}" fill="#25bf00" stroke="none" stroke-width="0"><path d="M257.04939,209.72026l2.98905,-3.17174l7.4875,7.05624l-2.98905,3.17174z" data-paper-data="{&quot;origPos&quot;:null,&quot;origRot&quot;:0}"/><path d="M271.87748,202.67514l3.15649,3.00516l-10.48871,11.02899l-3.15649,-3.00516z" data-paper-data="{&quot;origPos&quot;:null,&quot;origRot&quot;:0}"/></g><path d="M179.33334,240.66667v-121.33333h121.33333v121.33333z" fill="none" stroke="none" stroke-width="0"/></g></g></svg>