<svg version="1.1" xmlns="http://www.w3.org/2000/svg" xmlns:xlink="http://www.w3.org/1999/xlink" width="121.33333" height="121.33333" viewBox="0,0,121.33333,121.33333"><g transform="translate(-179.33333,-119.33333)"><g data-paper-data="{&quot;isPaintingLayer&quot;:true}" fill-rule="nonzero" stroke-linejoin="miter" stroke-miterlimit="10" stroke-dasharray="" stroke-dashoffset="0" style="mix-blend-mode: normal"><path d="M220.28049,156.04442c0,0 18.35707,8.87489 29.28371,14.27494c10.41307,5.26832 16.32951,14.40831 8.39929,25.57977c-13.0289,15.24077 -34.61838,2.48396 -29.86632,-12.88578c0.05605,-0.14802 -2.62019,0.15817 -4.24276,-3.61072c-1.93273,-3.70282 0.74746,-6.33884 0.74746,-6.33884c0,0 -4.53419,-1.96467 -6.03388,-8.53851c-0.92655,-4.06147 1.7125,-8.48087 1.7125,-8.48087z" data-paper-data="{&quot;origPos&quot;:null,&quot;origRot&quot;:0}" fill="none" stroke="#000000" stroke-width="4" stroke-linecap="round"/><path d="M260.10871,184.45942c0.96918,8.5231 -5.48523,16.25578 -14.41641,17.27138c-8.93117,1.0156 -16.95702,-5.07042 -17.92621,-13.59352c-0.2995,-2.6337 0.82835,-6.15534 0.82835,-6.15534c0,0 -3.50741,0.03558 -4.3732,-5.28167c-0.46825,-2.87565 2.37463,-4.89476 2.37463,-4.89476c0,0 -11.00819,-3.15801 -6.5944,-14.21914l26.64101,12.99763c0,0 12.44638,4.90719 13.46622,13.8754z" data-paper-data="{&quot;origPos&quot;:null}" fill="#000000" stroke="none" stroke-width="0" stroke-linecap="butt"/><path d="M179.33334,240.66667v-121.33333h121.33333v121.33333z" fill="none" stroke="none" stroke-width="0" stroke-linecap="butt"/></g></g></svg>