<svg version="1.1" xmlns="http://www.w3.org/2000/svg" xmlns:xlink="http://www.w3.org/1999/xlink" width="24.08603" height="22.43868" viewBox="0,0,24.08603,22.43868"><g transform="translate(-227.87718,-169.51674)"><g data-paper-data="{&quot;isPaintingLayer&quot;:true}" fill="#ff0000" fill-rule="nonzero" stroke="#ff0000" stroke-width="2" stroke-linejoin="miter" stroke-miterlimit="10" stroke-dasharray="" stroke-dashoffset="0" style="mix-blend-mode: normal"><path d="M239.97827,189.48327v-14.59021c0,0 2.06532,-3.96374 5.44486,-4.36928c3.77728,-0.16261 5.16581,2.53069 5.54008,4.01997c0.80285,3.1947 -1.53585,5.19078 -4.48753,8.23191c-2.70718,2.78922 -6.49741,6.70762 -6.49741,6.70762z" data-paper-data="{&quot;origPos&quot;:null}" stroke-linecap="round"/><path d="M240.02173,189.48328c0,0 -3.79023,-3.9184 -6.49741,-6.70762c-2.95168,-3.04112 -5.29038,-5.03721 -4.48753,-8.23191c0.37427,-1.48928 1.7628,-4.18258 5.54008,-4.01997c3.37955,0.40554 5.44486,4.36928 5.44486,4.36928v14.59021z" data-paper-data="{&quot;origPos&quot;:null}" stroke-linecap="round"/><path d="M238.79183,188.02051l0.13333,-12.86667h2.32821v12.8l-1.24711,1.2z" data-paper-data="{&quot;origPos&quot;:null}" stroke-linecap="butt"/></g></g></svg>