<svg version="1.1" xmlns="http://www.w3.org/2000/svg" xmlns:xlink="http://www.w3.org/1999/xlink" width="185.20525" height="304.44352" viewBox="0,0,185.20525,304.44352"><g transform="translate(-147.68339,-27.77811)"><g data-paper-data="{&quot;isPaintingLayer&quot;:true}" fill-rule="nonzero" stroke-linejoin="miter" stroke-miterlimit="10" stroke-dasharray="" stroke-dashoffset="0" style="mix-blend-mode: normal"><path d="M151.43339,69.41685c0.38825,-28.10779 13.11772,-37.88874 31.35145,-37.88874c45.94196,0 84.19667,0 117.72036,0c17.92288,0 28.63344,11.45754 28.63344,38.16544c0,71.38976 0,175.91746 0,240.46154c0,12.95952 -4.66571,18.31682 -20.21619,18.31682c0,0 -105.10841,0.43542 -140.55423,0c-9.53698,-0.11716 -17.03843,-4.87435 -17.12692,-21.81343c0,0 -0.9712,-153.7847 0.19187,-237.98198z" fill="#ffffff" stroke="#000000" stroke-width="7.5" stroke-linecap="butt"/><text transform="translate(173.0938,170.00002) scale(0.5,0.5)" font-size="40" xml:space="preserve" fill="#000000" fill-rule="nonzero" stroke="#000000" stroke-width="1" stroke-linecap="butt" stroke-linejoin="miter" stroke-miterlimit="10" stroke-dasharray="" stroke-dashoffset="0" font-family="Sans Serif" font-weight="normal" text-anchor="start" style="mix-blend-mode: normal"><tspan x="0" dy="0">Unlock with...</tspan></text><text transform="translate(200.5938,265.9886) scale(0.36206,0.36206)" font-size="40" xml:space="preserve" fill="#000000" fill-rule="nonzero" stroke="#000000" stroke-width="2" stroke-linecap="butt" stroke-linejoin="miter" stroke-miterlimit="10" stroke-dasharray="" stroke-dashoffset="0" font-family="Sans Serif" font-weight="normal" text-anchor="start" style="mix-blend-mode: normal"><tspan x="0" dy="0">Best :</tspan></text><g><path d="M204.6295,51.04444c0,0 31.32415,15.14394 49.96915,24.35848c17.76866,8.98976 27.86435,24.58606 14.33238,43.64882c-22.23226,26.00655 -59.07212,4.23858 -50.9633,-21.98804c0.09564,-0.25258 -4.47105,0.2699 -7.23977,-6.16126c-3.29798,-6.31842 1.27545,-10.81647 1.27545,-10.81647c0,0 -7.73705,-3.35247 -10.29609,-14.56994c-1.58104,-6.93041 2.92218,-14.47159 2.92218,-14.47159z" data-paper-data="{&quot;origPos&quot;:null,&quot;origRot&quot;:0}" fill="none" stroke="#000000" stroke-width="5" stroke-linecap="round"/><path d="M274.73134,99.98042c1.7246,15.16639 -9.76068,28.92631 -25.65324,30.73351c-15.89255,1.8072 -30.17412,-9.02255 -31.89874,-24.18895c-0.53294,-4.68654 1.47402,-10.9531 1.47402,-10.9531c0,0 -6.24125,0.06332 -7.78189,-9.39846c-0.83322,-5.11707 2.22553,-7.70997 2.22553,-7.70997c0,0 -17.5885,-6.61951 -9.73438,-26.3022l47.40627,23.12859c0,0 22.14768,8.73208 23.96243,24.69053z" data-paper-data="{&quot;origPos&quot;:null}" fill="#000000" stroke="none" stroke-width="0" stroke-linecap="butt"/></g><text transform="translate(166.31455,205.75092) scale(0.32896,0.32896)" font-size="40" xml:space="preserve" fill="#000000" fill-rule="nonzero" stroke="none" stroke-width="1" stroke-linecap="butt" stroke-linejoin="miter" stroke-miterlimit="10" stroke-dasharray="" stroke-dashoffset="0" font-family="Sans Serif" font-weight="normal" text-anchor="start" style="mix-blend-mode: normal"><tspan x="0" dy="0">  Tap precisely 15x the </tspan><tspan x="0" dy="48px">              screen</tspan></text></g></g></svg>