<svg version="1.1" xmlns="http://www.w3.org/2000/svg" xmlns:xlink="http://www.w3.org/1999/xlink" width="32.42099" height="31.85714" viewBox="0,0,32.42099,31.85714"><g transform="translate(-223.7895,-164.07143)"><g data-paper-data="{&quot;isPaintingLayer&quot;:true}" fill-rule="nonzero" stroke-linejoin="miter" stroke-miterlimit="10" stroke-dasharray="" stroke-dashoffset="0" style="mix-blend-mode: normal"><path d="M251.92714,180c0,6.44762 -5.33997,11.67446 -11.92714,11.67446c-6.58718,0 -11.92714,-5.22684 -11.92714,-11.67446c0,-6.44762 5.33996,-11.67446 11.92714,-11.67446c6.58718,0 11.92714,5.22684 11.92714,11.67446z" fill="#ffffff" stroke="#000000" stroke-width="1.5" stroke-linecap="butt"/><path d="M238.63099,177.45689l2.9815,0.10038l1.41429,2.35871l-1.46878,2.62714l-3.29821,-0.04887l-1.28655,-2.6677z" data-paper-data="{&quot;origRot&quot;:0}" fill="#000000" stroke="#000000" stroke-width="1.5" stroke-linecap="round"/><path d="M234.49848,184.67239l1.87395,1.7621l-0.56241,2.16892l-1.00303,1.04217l-3.66056,-3.53309l0.94921,-1.16163z" data-paper-data="{&quot;origRot&quot;:0}" fill="#000000" stroke="#000000" stroke-width="1.5" stroke-linecap="round"/><path d="M248.43636,184.96474l0.89815,1.09915l-3.46368,3.34307l-0.94909,-0.98612l-0.53216,-2.05226l1.77315,-1.66734z" data-paper-data="{&quot;origRot&quot;:0,&quot;index&quot;:null}" fill="#000000" stroke="#000000" stroke-width="1.5" stroke-linecap="round"/><path d="M245.58564,175.32863l-1.82899,-1.71983l0.54891,-2.11687l0.97897,-1.01716l3.57275,3.44833l-0.92643,1.13376z" data-paper-data="{&quot;origRot&quot;:0,&quot;index&quot;:null}" fill="#000000" stroke="#000000" stroke-width="1.5" stroke-linecap="round"/><path d="M232.04457,174.67836l-0.89815,-1.09915l3.46368,-3.34307l0.94909,0.98612l0.53216,2.05226l-1.77315,1.66734z" data-paper-data="{&quot;origRot&quot;:0,&quot;index&quot;:null}" fill="#000000" stroke="#000000" stroke-width="1.5" stroke-linecap="round"/><path d="M223.78951,195.92857v-31.85714h32.42099v31.85714z" fill="none" stroke="none" stroke-width="0" stroke-linecap="butt"/></g></g></svg>