<svg version="1.1" xmlns="http://www.w3.org/2000/svg" xmlns:xlink="http://www.w3.org/1999/xlink" width="124" height="124" viewBox="0,0,124,124"><g transform="translate(-178,-118)"><g data-paper-data="{&quot;isPaintingLayer&quot;:true}" fill-rule="nonzero" stroke-linejoin="miter" stroke-miterlimit="10" stroke-dasharray="" stroke-dashoffset="0" style="mix-blend-mode: normal"><path d="M287.36898,180c0,26.29843 -21.20784,47.61752 -47.36898,47.61752c-26.16118,0 -47.36898,-21.31909 -47.36898,-47.61752c0,-26.29843 21.2078,-47.61752 47.36898,-47.61752c26.16118,0 47.36898,21.31909 47.36898,47.61752z" data-paper-data="{&quot;origPos&quot;:null}" fill="#d97823" stroke="#000000" stroke-width="5" stroke-linecap="butt"/><path d="M210.69544,214.01252c25.1262,-13.28837 19.5614,-36.19536 44.88587,-38.71668c17.69425,-1.76165 27.97409,23.87487 27.97409,23.87487" data-paper-data="{&quot;origPos&quot;:null}" fill="none" stroke="#000000" stroke-width="5" stroke-linecap="round"/><path d="M194.43742,185.56568c0,0 22.15462,-18.99377 59.72704,-20.7073c18.65341,-0.85074 29.99305,3.39185 29.99305,3.39185" data-paper-data="{&quot;origPos&quot;:null}" fill="none" stroke="#000000" stroke-width="3.5" stroke-linecap="round"/><path d="M238.39427,133.0009c0,0 13.23145,11.52877 16.03197,37.1498c3.79116,34.68394 -11.2148,56.84844 -11.2148,56.84844" data-paper-data="{&quot;origPos&quot;:null}" fill="none" stroke="#000000" stroke-width="3.5" stroke-linecap="round"/><path d="M265.49093,141.04018c0,0 4.60468,14.2035 -12.68149,13.9188c-12.53219,-0.20641 -40.90972,-10.76505 -40.90972,-10.76505" data-paper-data="{&quot;origPos&quot;:null}" fill="none" stroke="#000000" stroke-width="5" stroke-linecap="round"/><path d="M178,242v-124h124v124z" fill="none" stroke="none" stroke-width="0" stroke-linecap="butt"/></g></g></svg>