<svg version="1.1" xmlns="http://www.w3.org/2000/svg" xmlns:xlink="http://www.w3.org/1999/xlink" width="121.33333" height="121.33333" viewBox="0,0,121.33333,121.33333"><g transform="translate(-179.33333,-119.33333)"><g data-paper-data="{&quot;isPaintingLayer&quot;:true}" fill-rule="nonzero" stroke-linejoin="miter" stroke-miterlimit="10" stroke-dasharray="" stroke-dashoffset="0" style="mix-blend-mode: normal"><path d="M264.99235,180c0,13.51047 -11.18947,24.46286 -24.99235,24.46286c-13.8029,0 -24.99235,-10.95239 -24.99235,-24.46286c0,-13.51047 11.18945,-24.46286 24.99235,-24.46286c13.8029,0 24.99235,10.95239 24.99235,24.46286z" fill="#ffffff" stroke="#000000" stroke-width="3" stroke-linecap="butt"/><path d="M237.13136,174.67111l6.24748,0.21032l2.96351,4.94249l-3.07773,5.50496l-6.91111,-0.1024l-2.69586,-5.58993z" data-paper-data="{&quot;origRot&quot;:0}" fill="#000000" stroke="#000000" stroke-width="3" stroke-linecap="round"/><path d="M228.47199,189.79062l3.92669,3.69234l-1.17848,4.54478l-2.10177,2.18377l-7.6704,-7.4033l1.98899,-2.4341z" data-paper-data="{&quot;origRot&quot;:0}" fill="#000000" stroke="#000000" stroke-width="3" stroke-linecap="round"/><path d="M257.6777,190.4032l1.88202,2.30318l-7.25786,7.00513l-1.98872,-2.06632l-1.1151,-4.30034l3.7155,-3.49376z" data-paper-data="{&quot;origRot&quot;:0,&quot;index&quot;:null}" fill="#000000" stroke="#000000" stroke-width="3" stroke-linecap="round"/><path d="M251.70426,170.21151l-3.83249,-3.60376l1.15021,-4.43574l2.05134,-2.13138l7.48639,7.22569l-1.94127,2.3757z" data-paper-data="{&quot;origRot&quot;:0,&quot;index&quot;:null}" fill="#000000" stroke="#000000" stroke-width="3" stroke-linecap="round"/><path d="M223.33005,168.84893l-1.88202,-2.30318l7.25786,-7.00513l1.98872,2.06632l1.1151,4.30034l-3.7155,3.49376z" data-paper-data="{&quot;origRot&quot;:0,&quot;index&quot;:null}" fill="#000000" stroke="#000000" stroke-width="3" stroke-linecap="round"/><path d="M179.33334,240.66667v-121.33333h121.33333v121.33333z" fill="none" stroke="none" stroke-width="0" stroke-linecap="butt"/></g></g></svg>