<svg version="1.1" xmlns="http://www.w3.org/2000/svg" xmlns:xlink="http://www.w3.org/1999/xlink" width="185.20525" height="304.44352" viewBox="0,0,185.20525,304.44352"><g transform="translate(-147.68339,-27.77811)"><g data-paper-data="{&quot;isPaintingLayer&quot;:true}" fill-rule="nonzero" stroke-linecap="butt" stroke-linejoin="miter" stroke-miterlimit="10" stroke-dasharray="" stroke-dashoffset="0" style="mix-blend-mode: normal"><path d="M151.43339,69.41685c0.38825,-28.10779 13.11772,-37.88874 31.35145,-37.88874c45.94196,0 84.19667,0 117.72036,0c17.92288,0 28.63344,11.45754 28.63344,38.16544c0,71.38976 0,175.91746 0,240.46154c0,12.95952 -4.66571,18.31682 -20.21619,18.31682c0,0 -105.10841,0.43542 -140.55423,0c-9.53698,-0.11716 -17.03843,-4.87435 -17.12692,-21.81343c0,0 -0.9712,-153.7847 0.19187,-237.98198z" fill="#ffffff" stroke="#000000" stroke-width="7.5"/><text transform="translate(173.09389,177.00005) scale(0.5,0.5)" font-size="40" xml:space="preserve" fill="#000000" fill-rule="nonzero" stroke="#000000" stroke-width="1" stroke-linecap="butt" stroke-linejoin="miter" stroke-miterlimit="10" stroke-dasharray="" stroke-dashoffset="0" font-family="Sans Serif" font-weight="normal" text-anchor="start" style="mix-blend-mode: normal"><tspan x="0" dy="0">Unlock with...</tspan></text><g><path d="M287.13088,99.00002c0,25.4782 -21.10123,46.13235 -47.13087,46.13235c-26.02967,0 -47.13087,-20.65415 -47.13087,-46.13235c0,-25.4782 21.1012,-46.13235 47.13087,-46.13235c26.02967,0 47.13087,20.65415 47.13087,46.13235z" fill="#23b3d9" stroke="#000000" stroke-width="5"/><path d="M232.02254,78.61204c0,4.65488 -3.61729,8.822 -7.3306,10.2875c-2.68621,1.06015 -3.75671,-1.15823 -6.58682,-1.15823c-4.33437,0 -6.97215,9.01631 -8.60419,7.28578c-2.56678,-2.72168 -0.56721,-5.01549 -0.62707,-9.10564c-0.03244,-2.21566 -1.05962,-4.42357 -1.05962,-6.63957c0,-6.10415 4.41099,-11.05252 9.85222,-11.05252c5.44123,0 14.3561,4.27853 14.3561,10.38268z" fill="#23d948" stroke="none" stroke-width="0"/><path d="M219.2017,107.43612c-8.58248,6.42973 -4.97398,14.3561 -10.41521,14.3561c-5.44123,0 -3.65278,-11.40233 -5.91132,-22.80086c0,-5.75216 3.28503,-3.09641 8.72625,-3.09641c5.44123,0 7.60029,5.78901 7.60029,11.54117z" fill="#23d948" stroke="none" stroke-width="0"/><path d="M278.71101,82.74313c0,4.17758 0.01288,12.47006 -2.4541,15.84144c-2.0475,2.79811 -5.37741,-2.0476 -7.07038,0.97821c-2.74974,4.91458 0.67314,4.90513 -4.47628,7.18494c-2.80711,1.24281 -2.53855,-7.38012 -5.50018,-6.57198c-1.01493,0.27695 -2.05934,3.13081 -3.06335,2.81657c-2.72221,-0.85201 -3.29399,-0.80694 -5.46205,-2.66054c-0.83262,-0.71186 -1.23017,-3.35803 -2.32562,-3.35803c-1.39586,0 -1.70372,2.38112 -3.04604,2.764c-0.90164,0.25717 -1.07748,-1.50463 -2.01197,-1.42828c-0.77639,0.06344 0.56022,3.4956 -0.07164,3.04002c-0.30115,-0.21711 -0.43883,-0.3339 -0.80801,-0.29466c-0.35014,0.03723 -1.48229,0.92407 -1.57516,0.58443c-0.20972,-0.76692 0.61736,-0.85993 0.73239,-1.64663c0.11111,-0.75985 -0.23865,-2.39394 -0.8651,-1.94978c-2.73646,1.94022 -2.53244,5.69317 -5.25502,3.73355c-1.65719,-1.19281 -0.84222,-1.70061 0.22502,-3.44132c0.57325,-0.93499 1.91327,0.60878 2.534,-0.29537c0.65719,-0.95722 0.72445,-1.72804 0.10958,-2.71299c-0.44362,-0.71059 -1.40071,-0.12908 -1.40071,-0.9668c0,-1.28247 1.92924,-0.86415 2.42019,-2.04892c0.70554,-1.70257 1.4504,-0.58996 1.63125,-2.42402c0.22654,-2.29758 3.00651,-0.38186 4.16327,-2.37988c0.96052,-1.65904 -1.21382,-8.52723 0.70322,-8.52723c0,0 1.58157,3.01456 2.44132,2.79313c2.05405,-0.52905 1.20198,-2.09048 2.99787,-3.2191c5.38769,-3.38582 12.81986,-7.2906 19.72866,-4.2172c3.77562,1.67958 7.69883,2.9396 7.69883,8.40642z" fill="#1fc240" stroke="none" stroke-width="0"/><path d="M255.60975,113.24043c0.10076,5.51325 -4.13238,14.59662 -8.76697,18.96617c-3.38967,3.19583 -3.64784,-11.12629 -7.42891,-13.8478c-2.23774,-1.61067 -7.88175,-4.91194 -7.88175,-7.66907c0,-5.51417 7.16857,-8.28501 13.01695,-8.28501c5.84835,0 10.81794,-2.4466 11.0607,10.8357z" fill="#75d989" stroke="none" stroke-width="0"/><path d="M277.20045,108.08582c-2.08196,-1.49854 -3.04183,0.62466 -3.04183,-1.94054c0,-5.13029 -5.5081,-3.86548 -0.08537,-3.41702c2.73098,0.22586 6.64505,7.88961 3.1272,5.35755z" fill="#23d948" stroke="none" stroke-width="0"/><path d="M261.73949,62.94217c0,5.18217 -1.48395,6.50878 -8.60143,6.50878c-5.66964,0 -11.2344,7.11023 -15.83601,4.55258c-2.72334,-1.51368 -2.20632,-10.77592 -2.20632,-13.36705c0,-5.12371 5.18455,-5.02533 5.38271,-5.02533c7.11749,0 21.26104,2.14884 21.26104,7.33102z" fill="#d9d9d9" stroke="none" stroke-width="0"/><path d="M253.92044,139.56958c-2.76586,2.73731 -15.96119,3.10212 -20.58258,2.09634c-0.2068,-0.04501 -7.95347,-1.39684 -12.10203,-3.7027c-2.29741,-1.27694 10.83655,-0.66728 10.83655,-2.85314c0,-4.32236 7.51671,0.66373 7.68387,0.66373c6.00431,0 17.27143,0.72059 14.1642,3.79574z" fill="#d9d9d9" stroke="none" stroke-width="0"/><path d="M237.17628,90.44519c-2.13306,-1.29734 -2.98769,1.19383 -2.98769,-1.02694c0,-4.44146 3.50199,-5.52328 1.58702,-1.97865c2.79802,0.19552 5.00489,5.19767 1.40067,3.00559z" fill="#1fc240" stroke="none" stroke-width="0"/></g><text transform="translate(179.0647,224.75097) scale(0.32896,0.32896)" font-size="40" xml:space="preserve" fill="#000000" fill-rule="nonzero" stroke="none" stroke-width="1" stroke-linecap="butt" stroke-linejoin="miter" stroke-miterlimit="10" stroke-dasharray="" stroke-dashoffset="0" font-family="Sans Serif" font-weight="normal" text-anchor="start" style="mix-blend-mode: normal"><tspan x="0" dy="0">Love this project :D</tspan></text><text transform="translate(187.26045,238.93729) scale(0.2119,0.2119)" font-size="40" xml:space="preserve" fill="#000000" fill-rule="nonzero" stroke="#000000" stroke-width="0" stroke-linecap="butt" stroke-linejoin="miter" stroke-miterlimit="10" stroke-dasharray="" stroke-dashoffset="0" font-family="Sans Serif" font-weight="normal" text-anchor="start" style="mix-blend-mode: normal"><tspan x="0" dy="0">(if you think it's deserved)</tspan></text><g stroke="none"><path d="M239.22899,271.42342c-0.04318,-0.03636 -0.08801,-0.07366 -0.13233,-0.11153c-1.20627,-1.03068 -2.41238,-2.06155 -3.61831,-3.0926c-0.67232,-0.57609 -1.32178,-1.17744 -1.95936,-1.79168c-0.54234,-0.52248 -1.06956,-1.05979 -1.58166,-1.61193c-0.59684,-0.63895 -1.1548,-1.31314 -1.67087,-2.01893c-0.37927,-0.51895 -0.71688,-1.06707 -1.00971,-1.63927c-0.31901,-0.62107 -0.55435,-1.28164 -0.69987,-1.96451c-0.05947,-0.29143 -0.10076,-0.58627 -0.12368,-0.88282c-0.01961,-0.2527 -0.02497,-0.50632 -0.01606,-0.75963c0.02102,-0.78456 0.20869,-1.55568 0.55053,-2.26217c0.65409,-1.39467 1.8411,-2.46807 3.29431,-2.97903c0.75296,-0.26748 1.55324,-0.37571 2.3502,-0.31786c1.38058,0.09381 2.68031,0.68509 3.65814,1.66419c0.35371,0.34842 0.66006,0.74185 0.91115,1.17018c0.01464,0.02476 0.03059,0.04874 0.04576,0.07276c0.04119,-0.01202 0.0475,-0.04857 0.06359,-0.07557c1.07017,-1.82336 3.05289,-2.91428 5.16588,-2.84233c2.0922,0.06506 3.98596,1.25547 4.95169,3.11259c0.28952,0.55417 0.48611,1.1521 0.58193,1.76996c0.06448,0.42879 0.08388,0.86317 0.05789,1.29601c-0.06143,0.99966 -0.32387,1.97665 -0.77162,2.87253c-0.29606,0.59936 -0.64222,1.17265 -1.03479,1.71374c-0.50004,0.6902 -1.04114,1.34968 -1.62038,1.97489c-0.75651,0.82717 -1.55523,1.61212 -2.37505,2.37607c-0.63974,0.59612 -1.30144,1.16713 -1.96687,1.73409c-0.98686,0.84083 -1.97277,1.68277 -2.95775,2.52584c-0.02587,0.02857 -0.05746,0.0514 -0.09272,0.06701z" fill="#ff0e2e" stroke-width="1"/><path d="M226.23739,274.58848v-25.77848h25.99694v25.77848z" fill="none" stroke-width="0"/></g></g></g></svg>