<svg version="1.1" xmlns="http://www.w3.org/2000/svg" xmlns:xlink="http://www.w3.org/1999/xlink" width="185.20525" height="304.44352" viewBox="0,0,185.20525,304.44352"><g transform="translate(-147.68339,-27.77811)"><g data-paper-data="{&quot;isPaintingLayer&quot;:true}" fill-rule="nonzero" stroke-linejoin="miter" stroke-miterlimit="10" stroke-dasharray="" stroke-dashoffset="0" style="mix-blend-mode: normal"><path d="M151.43339,69.41685c0.38825,-28.10779 13.11772,-37.88874 31.35145,-37.88874c45.94196,0 84.19667,0 117.72036,0c17.92288,0 28.63344,11.45754 28.63344,38.16544c0,71.38976 0,175.91746 0,240.46154c0,12.95952 -4.66571,18.31682 -20.21619,18.31682c0,0 -105.10841,0.43542 -140.55423,0c-9.53698,-0.11716 -17.03843,-4.87435 -17.12692,-21.81343c0,0 -0.9712,-153.7847 0.19187,-237.98198z" fill="#ffffff" stroke="#000000" stroke-width="7.5" stroke-linecap="butt"/><text transform="translate(183.09389,170.00007) scale(0.5,0.5)" font-size="40" xml:space="preserve" fill="#000000" fill-rule="nonzero" stroke="#000000" stroke-width="1" stroke-linecap="butt" stroke-linejoin="miter" stroke-miterlimit="10" stroke-dasharray="" stroke-dashoffset="0" font-family="Sans Serif" font-weight="normal" text-anchor="start" style="mix-blend-mode: normal"><tspan x="0" dy="0">Unlocked !</tspan></text><text transform="translate(200.59389,265.9886) scale(0.36206,0.36206)" font-size="40" xml:space="preserve" fill="#000000" fill-rule="nonzero" stroke="#000000" stroke-width="2" stroke-linecap="butt" stroke-linejoin="miter" stroke-miterlimit="10" stroke-dasharray="" stroke-dashoffset="0" font-family="Sans Serif" font-weight="normal" text-anchor="start" style="mix-blend-mode: normal"><tspan x="0" dy="0">Best :</tspan></text><g><path d="M256.56552,76.57066c18.03579,9.12491 28.28326,24.95569 14.54785,44.30503c-22.5665,26.39754 -59.96022,4.3023 -51.72948,-22.31861c0.09708,-0.25637 -4.53826,0.27396 -7.3486,-6.25389c-3.34756,-6.41341 1.29463,-10.97909 1.29463,-10.97909c0,0 -7.85337,-3.40287 -10.45089,-14.78899c-1.60482,-7.03461 2.96611,-14.68915 2.96611,-14.68915c0,0 31.79507,15.37163 50.72038,24.7247z" data-paper-data="{&quot;origRot&quot;:0}" fill="none" stroke="#000000" stroke-width="7.5" stroke-linecap="round"/><path d="M274.74953,100.81799c1.62454,14.28643 -9.19435,27.24796 -24.16481,28.95031c-14.97044,1.70235 -28.42338,-8.49905 -30.04794,-22.78548c-0.50202,-4.41461 1.38849,-10.31759 1.38849,-10.31759c0,0 -5.87913,0.05964 -7.33037,-8.85315c-0.78487,-4.82017 3.98036,-8.2046 3.98036,-8.2046c0,0 -18.45195,-5.29347 -11.05354,-23.83415l44.65571,21.78665c0,0 20.86265,8.22543 22.5721,23.25797z" fill="#ff8600" stroke="none" stroke-width="0" stroke-linecap="butt"/></g><text transform="translate(165.31456,224.75095) scale(0.32896,0.32896)" font-size="40" xml:space="preserve" fill="#000000" fill-rule="nonzero" stroke="none" stroke-width="1" stroke-linecap="butt" stroke-linejoin="miter" stroke-miterlimit="10" stroke-dasharray="" stroke-dashoffset="0" font-family="Sans Serif" font-weight="normal" text-anchor="start" style="mix-blend-mode: normal"><tspan x="0" dy="0">  Make over 15 perfects</tspan><tspan x="0" dy="48px">             in a row</tspan></text></g></g></svg>