<svg version="1.1" xmlns="http://www.w3.org/2000/svg" xmlns:xlink="http://www.w3.org/1999/xlink" width="185.20525" height="304.44352" viewBox="0,0,185.20525,304.44352"><g transform="translate(-147.68339,-27.77811)"><g data-paper-data="{&quot;isPaintingLayer&quot;:true}" fill-rule="nonzero" stroke="#000000" stroke-linecap="butt" stroke-linejoin="miter" stroke-miterlimit="10" stroke-dasharray="" stroke-dashoffset="0" style="mix-blend-mode: normal"><path d="M151.43339,69.41685c0.38825,-28.10779 13.11772,-37.88874 31.35145,-37.88874c45.94196,0 84.19667,0 117.72036,0c17.92288,0 28.63344,11.45754 28.63344,38.16544c0,71.38976 0,175.91746 0,240.46154c0,12.95952 -4.66571,18.31682 -20.21619,18.31682c0,0 -105.10841,0.43542 -140.55423,0c-9.53698,-0.11716 -17.03843,-4.87435 -17.12692,-21.81343c0,0 -0.9712,-153.7847 0.19187,-237.98198z" fill="#ffffff" stroke-width="7.5"/><text transform="translate(173.0938,170.00002) scale(0.5,0.5)" font-size="40" xml:space="preserve" fill="#000000" fill-rule="nonzero" stroke="#000000" stroke-width="1" stroke-linecap="butt" stroke-linejoin="miter" stroke-miterlimit="10" stroke-dasharray="" stroke-dashoffset="0" font-family="Sans Serif" font-weight="normal" text-anchor="start" style="mix-blend-mode: normal"><tspan x="0" dy="0">Unlock with...</tspan></text><text transform="translate(200.5938,265.9886) scale(0.36206,0.36206)" font-size="40" xml:space="preserve" fill="#000000" fill-rule="nonzero" stroke="#000000" stroke-width="2" stroke-linecap="butt" stroke-linejoin="miter" stroke-miterlimit="10" stroke-dasharray="" stroke-dashoffset="0" font-family="Sans Serif" font-weight="normal" text-anchor="start" style="mix-blend-mode: normal"><tspan x="0" dy="0">Best :</tspan></text></g></g></svg>