<svg version="1.1" xmlns="http://www.w3.org/2000/svg" xmlns:xlink="http://www.w3.org/1999/xlink" width="185.20525" height="304.44352" viewBox="0,0,185.20525,304.44352"><g transform="translate(-147.68339,-27.77811)"><g data-paper-data="{&quot;isPaintingLayer&quot;:true}" fill-rule="nonzero" stroke-linejoin="miter" stroke-miterlimit="10" stroke-dasharray="" stroke-dashoffset="0" style="mix-blend-mode: normal"><path d="M151.43339,69.41685c0.38825,-28.10779 13.11772,-37.88874 31.35145,-37.88874c45.94196,0 84.19667,0 117.72036,0c17.92288,0 28.63344,11.45754 28.63344,38.16544c0,71.38976 0,175.91746 0,240.46154c0,12.95952 -4.66571,18.31682 -20.21619,18.31682c0,0 -105.10841,0.43542 -140.55423,0c-9.53698,-0.11716 -17.03843,-4.87435 -17.12692,-21.81343c0,0 -0.9712,-153.7847 0.19187,-237.98198z" fill="#ffffff" stroke="#000000" stroke-width="7.5" stroke-linecap="butt"/><text transform="translate(183.09381,177.00003) scale(0.5,0.5)" font-size="40" xml:space="preserve" fill="#000000" fill-rule="nonzero" stroke="#000000" stroke-width="1" stroke-linecap="butt" stroke-linejoin="miter" stroke-miterlimit="10" stroke-dasharray="" stroke-dashoffset="0" font-family="Sans Serif" font-weight="normal" text-anchor="start" style="mix-blend-mode: normal"><tspan x="0" dy="0">Unlocked !</tspan></text><text transform="translate(200.59381,265.9886) scale(0.36206,0.36206)" font-size="40" xml:space="preserve" fill="#000000" fill-rule="nonzero" stroke="#000000" stroke-width="2" stroke-linecap="butt" stroke-linejoin="miter" stroke-miterlimit="10" stroke-dasharray="" stroke-dashoffset="0" font-family="Sans Serif" font-weight="normal" text-anchor="start" style="mix-blend-mode: normal"><tspan x="0" dy="0">Best :</tspan></text><g stroke="#000000"><path d="M285.99235,96c0,25.94391 -21.48693,46.97558 -47.99235,46.97558c-26.50545,0 -47.99235,-21.03167 -47.99235,-46.97558c0,-25.94391 21.4869,-46.97558 47.99235,-46.97558c26.50545,0 47.99235,21.03167 47.99235,46.97558z" fill="#23a5d9" stroke-width="5" stroke-linecap="butt"/><path d="M208.30981,129.55398c25.45687,-13.10922 19.81882,-35.70741 45.47657,-38.19473c17.92712,-1.73789 28.34222,23.553 28.34222,23.553" fill="none" stroke-width="5" stroke-linecap="round"/><path d="M191.83781,101.49064c0,0 22.44617,-18.7377 60.51305,-20.42815c18.89889,-0.83928 30.38777,3.34613 30.38777,3.34613" fill="none" stroke-width="3.5" stroke-linecap="round"/><path d="M236.37315,49.63451c0,0 13.40558,11.37335 16.24295,36.64898c3.84106,34.21636 -11.36238,56.08205 -11.36238,56.08205" fill="none" stroke-width="3.5" stroke-linecap="round"/><path d="M263.8264,57.56541c0,0 4.66529,14.01203 -12.84837,13.73117c-12.69711,-0.20363 -41.44809,-10.61993 -41.44809,-10.61993" fill="none" stroke-width="5" stroke-linecap="round"/></g><text transform="translate(163.31454,224.75091) scale(0.32896,0.32896)" font-size="40" xml:space="preserve" fill="#000000" fill-rule="nonzero" stroke="none" stroke-width="1" stroke-linecap="butt" stroke-linejoin="miter" stroke-miterlimit="10" stroke-dasharray="" stroke-dashoffset="0" font-family="Sans Serif" font-weight="normal" text-anchor="start" style="mix-blend-mode: normal"><tspan x="0" dy="0">Make at least 3 perfects </tspan><tspan x="0" dy="48px">             in a row</tspan></text></g></g></svg>